RobotoDelta-opsz36.ufo
<glyph name="quotedbl" format="1">
  <advance width="708.16"/>
  <unicode hex="0022"/>
  <outline>
    <contour>
      <point x="112.84" y="1001.28" type="line"/>
      <point x="241.24" y="1001.28" type="line"/>
      <point x="254.08" y="1329.72" type="line"/>
      <point x="254.08" y="1456.0" type="line"/>
      <point x="100.0" y="1456.0" type="line"/>
      <point x="100.0" y="1329.72" type="line"/>
    </contour>
    <contour>
      <point x="466.92" y="1001.28" type="line"/>
      <point x="595.32" y="1001.28" type="line"/>
      <point x="608.16" y="1329.72" type="line"/>
      <point x="608.16" y="1456.0" type="line"/>
      <point x="454.08" y="1456.0" type="line"/>
      <point x="454.08" y="1329.72" type="line"/>
    </contour>
  </outline>
</glyph>
<glyph name="numbersign" format="1">
  <advance width="1471.64"/>
  <unicode hex="0023"/>
  <outline>
    <contour>
      <point x="226.44" y="-20.0" type="line"/>
      <point x="348.84" y="-20.0" type="line"/>
      <point x="790.14" y="1476.0" type="line"/>
      <point x="667.74" y="1476.0" type="line"/>
    </contour>
    <contour>
      <point x="681.6800000000001" y="-20.0" type="line"/>
      <point x="804.08" y="-20.0" type="line"/>
      <point x="1245.2" y="1476.0" type="line"/>
      <point x="1122.8" y="1476.0" type="line"/>
    </contour>
    <contour>
      <point x="81.28" y="413.71999999999997" type="line"/>
      <point x="1318.78" y="413.71999999999997" type="line"/>
      <point x="1318.78" y="536.6" type="line"/>
      <point x="81.28" y="536.6" type="line"/>
    </contour>
    <contour>
      <point x="153.85999999999999" y="919.4" type="line"/>
      <point x="1390.3600000000001" y="919.4" type="line"/>
      <point x="1390.3600000000001" y="1042.28" type="line"/>
      <point x="153.85999999999999" y="1042.28" type="line"/>
    </contour>
  </outline>
</glyph>
<glyph name="dollar" format="1">
  <advance width="1070.72"/>
  <unicode hex="0024"/>
  <outline>
    <contour>
      <point x="90.0" y="411.0" type="line" smooth="yes"/>
      <point x="90.0" y="215.6"/>
      <point x="338.36" y="0.0"/>
      <point x="544.76" y="0.0" type="qcurve" smooth="yes"/>
      <point x="749.44" y="0.0"/>
      <point x="990.72" y="213.01743315508023"/>
      <point x="990.72" y="388.6" type="qcurve" smooth="yes"/>
      <point x="990.72" y="558.1441836734693"/>
      <point x="809.2841096133031" y="747.6084952520077"/>
      <point x="603.1" y="810.82" type="qcurve" smooth="yes"/>
      <point x="399.5522612231619" y="873.5975029202743"/>
      <point x="268.54" y="989.4690909090909"/>
      <point x="268.54" y="1081.4" type="qcurve" smooth="yes"/>
      <point x="268.54" y="1194.7264516129032"/>
      <point x="398.28" y="1317.44"/>
      <point x="535.3" y="1317.44" type="qcurve" smooth="yes"/>
      <point x="672.5" y="1317.44"/>
      <point x="811.52" y="1172.44"/>
      <point x="811.52" y="1051.0" type="qcurve" smooth="yes"/>
      <point x="811.52" y="1039.0" type="line"/>
      <point x="964.32" y="1039.0" type="line"/>
      <point x="964.32" y="1051.0" type="line" smooth="yes"/>
      <point x="964.32" y="1224.86"/>
      <point x="732.0" y="1456.0"/>
      <point x="535.3" y="1456.0" type="qcurve" smooth="yes"/>
      <point x="341.12" y="1456.0"/>
      <point x="117.08" y="1247.0"/>
      <point x="117.08" y="1081.4" type="qcurve" smooth="yes"/>
      <point x="117.08" y="920.1414659685864"/>
      <point x="296.2126039212799" y="740.8723390045982"/>
      <point x="503.64" y="675.74" type="qcurve" smooth="yes"/>
      <point x="710.9433373013005" y="611.7836143773621"/>
      <point x="839.44" y="489.19"/>
      <point x="839.44" y="388.6" type="qcurve" smooth="yes"/>
      <point x="839.44" y="274.5911111111111"/>
      <point x="687.86" y="138.56"/>
      <point x="544.76" y="138.56" type="qcurve" smooth="yes"/>
      <point x="401.74" y="138.56"/>
      <point x="242.98" y="272.48"/>
      <point x="242.98" y="411.0" type="qcurve" smooth="yes"/>
      <point x="242.98" y="423.0" type="line"/>
      <point x="90.0" y="423.0" type="line"/>
    </contour>
    <contour>
      <point x="480.92" y="-150.0" type="line"/>
      <point x="606.9200000000001" y="-150.0" type="line"/>
      <point x="606.9200000000001" y="90.0" type="line"/>
      <point x="599.32" y="100.0" type="line"/>
      <point x="599.32" y="728.0" type="line"/>
      <point x="480.92" y="728.0" type="line"/>
    </contour>
    <contour>
      <point x="488.52" y="728.0" type="line"/>
      <point x="606.9200000000001" y="728.0" type="line"/>
      <point x="606.9200000000001" y="1606.0" type="line"/>
      <point x="480.92" y="1606.0" type="line"/>
      <point x="480.92" y="1366.0" type="line"/>
      <point x="488.52" y="1356.0" type="line"/>
    </contour>
  </outline>
</glyph>
<glyph name="percent" format="1">
  <advance width="1633.8400000000001"/>
  <unicode hex="0025"/>
  <outline>
    <contour>
      <point x="70.0" y="1001.6" type="line" smooth="yes"/>
      <point x="70.0" y="846.46"/>
      <point x="217.26" y="660.0"/>
      <point x="356.26" y="660.0" type="qcurve" smooth="yes"/>
      <point x="495.44" y="660.0"/>
      <point x="642.7" y="846.46"/>
      <point x="642.7" y="1001.6" type="qcurve" smooth="yes"/>
      <point x="642.7" y="1134.4" type="line" smooth="yes"/>
      <point x="642.7" y="1289.54"/>
      <point x="495.44" y="1476.0"/>
      <point x="356.26" y="1476.0" type="qcurve" smooth="yes"/>
      <point x="217.26" y="1476.0"/>
      <point x="70.0" y="1289.54"/>
      <point x="70.0" y="1134.4" type="qcurve" smooth="yes"/>
    </contour>
    <contour>
      <point x="211.2" y="999.8" type="qcurve" smooth="yes"/>
      <point x="211.2" y="1136.2" type="line" smooth="yes"/>
      <point x="211.2" y="1228.18"/>
      <point x="275.8" y="1344.36"/>
      <point x="356.26" y="1344.36" type="qcurve" smooth="yes"/>
      <point x="436.90000000000003" y="1344.36"/>
      <point x="501.5" y="1228.18"/>
      <point x="501.5" y="1136.2" type="qcurve" smooth="yes"/>
      <point x="501.5" y="999.8" type="line" smooth="yes"/>
      <point x="501.5" y="907.82"/>
      <point x="436.90000000000003" y="791.64"/>
      <point x="356.26" y="791.64" type="qcurve" smooth="yes"/>
      <point x="275.8" y="791.64"/>
      <point x="211.2" y="907.82"/>
    </contour>
    <contour>
      <point x="331.96000000000004" y="52.6" type="line"/>
      <point x="444.72" y="-24.6" type="line"/>
      <point x="1302.96" y="1405.92" type="line"/>
      <point x="1189.1200000000001" y="1480.6" type="line"/>
    </contour>
    <contour>
      <point x="991.14" y="321.6" type="line" smooth="yes"/>
      <point x="991.14" y="166.46"/>
      <point x="1138.4" y="-20.0"/>
      <point x="1277.4" y="-20.0" type="qcurve" smooth="yes"/>
      <point x="1416.58" y="-20.0"/>
      <point x="1563.8400000000001" y="166.46"/>
      <point x="1563.8400000000001" y="321.6" type="qcurve" smooth="yes"/>
      <point x="1563.8400000000001" y="454.4" type="line" smooth="yes"/>
      <point x="1563.8400000000001" y="609.54"/>
      <point x="1416.58" y="796.0"/>
      <point x="1277.4" y="796.0" type="qcurve" smooth="yes"/>
      <point x="1138.4" y="796.0"/>
      <point x="991.14" y="609.54"/>
      <point x="991.14" y="454.4" type="qcurve" smooth="yes"/>
    </contour>
    <contour>
      <point x="1132.3400000000001" y="319.8" type="qcurve" smooth="yes"/>
      <point x="1132.3400000000001" y="456.2" type="line" smooth="yes"/>
      <point x="1132.3400000000001" y="548.18"/>
      <point x="1196.94" y="664.36"/>
      <point x="1277.4" y="664.36" type="qcurve" smooth="yes"/>
      <point x="1358.04" y="664.36"/>
      <point x="1422.64" y="548.18"/>
      <point x="1422.64" y="456.2" type="qcurve" smooth="yes"/>
      <point x="1422.64" y="319.8" type="line" smooth="yes"/>
      <point x="1422.64" y="227.82"/>
      <point x="1358.04" y="111.64000000000001"/>
      <point x="1277.4" y="111.64000000000001" type="qcurve" smooth="yes"/>
      <point x="1196.94" y="111.64000000000001"/>
      <point x="1132.3400000000001" y="227.82"/>
    </contour>
  </outline>
</glyph>
<glyph name="ampersand" format="1">
  <advance width="1158.44"/>
  <unicode hex="0026"/>
  <outline>
    <contour>
      <point x="80.0" y="380.0" type="qcurve" smooth="yes"/>
      <point x="80.0" y="218.2"/>
      <point x="302.04" y="-20.0"/>
      <point x="497.74" y="-20.0" type="qcurve" smooth="yes"/>
      <point x="734.04" y="-20.0"/>
      <point x="1053.88" y="380.0"/>
      <point x="1053.88" y="674.0" type="qcurve"/>
      <point x="910.2" y="674.0" type="line"/>
      <point x="910.2" y="412.8"/>
      <point x="666.4" y="113.64000000000001"/>
      <point x="497.74" y="113.64000000000001" type="qcurve" smooth="yes"/>
      <point x="377.28" y="113.64000000000001"/>
      <point x="232.8" y="262.8"/>
      <point x="232.8" y="380.0" type="qcurve" smooth="yes"/>
      <point x="232.8" y="491.44"/>
      <point x="364.46" y="657.04"/>
      <point x="490.78" y="744.86" type="qcurve" smooth="yes"/>
      <point x="631.34" y="843.6" type="line" smooth="yes"/>
      <point x="719.06" y="904.86"/>
      <point x="824.6800000000001" y="1063.6"/>
      <point x="824.6800000000001" y="1180.0" type="qcurve" smooth="yes"/>
      <point x="824.6800000000001" y="1313.06"/>
      <point x="658.36" y="1486.0"/>
      <point x="521.48" y="1486.0" type="qcurve" smooth="yes"/>
      <point x="384.78" y="1486.0"/>
      <point x="203.76" y="1303.06"/>
      <point x="203.76" y="1160.0" type="qcurve" smooth="yes"/>
      <point x="203.76" y="1061.8"/>
      <point x="297.54" y="879.72"/>
      <point x="396.64" y="746.84" type="qcurve" smooth="yes"/>
      <point x="953.66" y="0.0" type="line"/>
      <point x="1134.44" y="0.0" type="line"/>
      <point x="512.76" y="835.5" type="line" smooth="yes"/>
      <point x="421.9" y="956.94"/>
      <point x="355.4" y="1088.92"/>
      <point x="355.4" y="1160.0" type="qcurve" smooth="yes"/>
      <point x="355.4" y="1240.08"/>
      <point x="443.5" y="1352.36"/>
      <point x="521.48" y="1352.36" type="qcurve" smooth="yes"/>
      <point x="599.82" y="1352.36"/>
      <point x="681.0" y="1250.26"/>
      <point x="681.0" y="1171.8" type="qcurve" smooth="yes"/>
      <point x="681.0" y="1105.86"/>
      <point x="622.38" y="1001.54"/>
      <point x="550.12" y="951.18" type="qcurve" smooth="yes"/>
      <point x="409.92" y="852.26" type="line" smooth="yes"/>
      <point x="274.92" y="757.36"/>
      <point x="80.0" y="536.58"/>
    </contour>
  </outline>
</glyph>
<glyph name="parenleft" format="1">
  <advance width="666.4"/>
  <unicode hex="0028"/>
  <outline>
    <contour>
      <point x="606.1" y="-436.0" type="qcurve"/>
      <point x="606.1" y="-295.8" type="line"/>
      <point x="484.2" y="-219.44"/>
      <point x="285.4" y="152.8"/>
      <point x="285.4" y="508.0" type="qcurve" smooth="yes"/>
      <point x="285.4" y="532.0" type="line" smooth="yes"/>
      <point x="285.4" y="887.2"/>
      <point x="484.2" y="1259.44"/>
      <point x="606.1" y="1335.8" type="qcurve"/>
      <point x="606.1" y="1476.0" type="line"/>
      <point x="415.48" y="1381.8"/>
      <point x="124.0" y="920.0"/>
      <point x="124.0" y="525.0" type="qcurve" smooth="yes"/>
      <point x="124.0" y="515.0" type="line" smooth="yes"/>
      <point x="124.0" y="120.0"/>
      <point x="415.48" y="-341.8"/>
    </contour>
  </outline>
</glyph>
<glyph name="parenright" format="1">
  <advance width="666.4"/>
  <unicode hex="0029"/>
  <outline>
    <contour>
      <point x="60.29999999999999" y="-436.0" type="line"/>
      <point x="250.92" y="-341.8"/>
      <point x="542.4" y="120.0"/>
      <point x="542.4" y="515.0" type="qcurve" smooth="yes"/>
      <point x="542.4" y="525.0" type="line" smooth="yes"/>
      <point x="542.4" y="920.0"/>
      <point x="250.92" y="1381.8"/>
      <point x="60.29999999999999" y="1476.0" type="qcurve"/>
      <point x="60.29999999999999" y="1335.8" type="line"/>
      <point x="182.2" y="1259.44"/>
      <point x="381.0" y="887.2"/>
      <point x="381.0" y="532.0" type="qcurve" smooth="yes"/>
      <point x="381.0" y="508.0" type="line" smooth="yes"/>
      <point x="381.0" y="152.8"/>
      <point x="182.2" y="-219.44"/>
      <point x="60.29999999999999" y="-295.8" type="qcurve"/>
    </contour>
  </outline>
</glyph>
<glyph name="asterisk" format="1">
  <advance width="1035.24"/>
  <unicode hex="002A"/>
  <outline>
    <contour>
      <point x="58.0" y="1081.3" type="line"/>
      <point x="438.3" y="990.42" type="line"/>
      <point x="184.92000000000002" y="696.2" type="line"/>
      <point x="311.56" y="598.96" type="line"/>
      <point x="517.62" y="931.62" type="line"/>
      <point x="723.6800000000001" y="598.96" type="line"/>
      <point x="850.32" y="696.2" type="line"/>
      <point x="596.94" y="990.42" type="line"/>
      <point x="977.24" y="1081.3" type="line"/>
      <point x="928.8" y="1237.72" type="line"/>
      <point x="566.28" y="1088.54" type="line"/>
      <point x="595.82" y="1476.0" type="line"/>
      <point x="439.42" y="1476.0" type="line"/>
      <point x="468.96" y="1088.54" type="line"/>
      <point x="106.44" y="1237.72" type="line"/>
    </contour>
  </outline>
</glyph>
<glyph name="comma" format="1">
  <advance width="554.08"/>
  <unicode hex="002C"/>
  <outline>
    <contour>
      <point x="123.44" y="-202.52" type="qcurve"/>
      <point x="215.24" y="-267.42" type="line"/>
      <point x="282.96" y="-205.28"/>
      <point x="364.08" y="-37.120000000000005"/>
      <point x="364.08" y="64.96000000000001" type="qcurve" smooth="yes"/>
      <point x="364.08" y="204.16" type="line"/>
      <point x="210.0" y="204.16" type="line"/>
      <point x="210.0" y="64.96000000000001" type="line" smooth="yes"/>
      <point x="210.0" y="-18.560000000000002"/>
      <point x="165.2" y="-143.2"/>
    </contour>
  </outline>
</glyph>
<glyph name="period" format="1">
  <advance width="542.56"/>
  <unicode hex="002E"/>
  <outline>
    <contour>
      <point x="160.0" y="94.0" type="qcurve" smooth="yes"/>
      <point x="160.0" y="45.78"/>
      <point x="217.4" y="-22.0"/>
      <point x="271.28" y="-22.0" type="qcurve" smooth="yes"/>
      <point x="325.16" y="-22.0"/>
      <point x="382.56" y="45.78"/>
      <point x="382.56" y="94.0" type="qcurve" smooth="yes"/>
      <point x="382.56" y="142.22"/>
      <point x="325.16" y="210.0"/>
      <point x="271.28" y="210.0" type="qcurve" smooth="yes"/>
      <point x="217.4" y="210.0"/>
      <point x="160.0" y="142.22"/>
    </contour>
  </outline>
</glyph>
<glyph name="zero" format="1">
  <advance width="1156"/>
  <unicode hex="0030"/>
  <outline>
    <contour>
      <point x="165" y="440" type="line" smooth="yes"/>
      <point x="165" y="230"/>
      <point x="383" y="-30"/>
      <point x="578" y="-30" type="qcurve" smooth="yes"/>
      <point x="772" y="-30"/>
      <point x="991" y="230"/>
      <point x="991" y="440" type="qcurve" smooth="yes"/>
      <point x="991" y="1016" type="line" smooth="yes"/>
      <point x="991" y="1227"/>
      <point x="772" y="1486"/>
      <point x="578" y="1486" type="qcurve" smooth="yes"/>
      <point x="383" y="1486"/>
      <point x="165" y="1227"/>
      <point x="165" y="1016" type="qcurve" smooth="yes"/>
    </contour>
    <contour>
      <point x="325" y="430" type="qcurve" smooth="yes"/>
      <point x="325" y="1026" type="line" smooth="yes"/>
      <point x="325" y="1164"/>
      <point x="449" y="1347"/>
      <point x="578" y="1347" type="qcurve" smooth="yes"/>
      <point x="707" y="1347"/>
      <point x="831" y="1164"/>
      <point x="831" y="1026" type="qcurve" smooth="yes"/>
      <point x="831" y="430" type="line" smooth="yes"/>
      <point x="831" y="293"/>
      <point x="707" y="109"/>
      <point x="578" y="109" type="qcurve" smooth="yes"/>
      <point x="449" y="109"/>
      <point x="325" y="293"/>
    </contour>
  </outline>
</glyph>
<glyph name="two" format="1">
  <advance width="1156"/>
  <unicode hex="0032"/>
  <outline>
    <contour>
      <point x="162" y="0" type="line"/>
      <point x="1012" y="0" type="line"/>
      <point x="1012" y="137" type="line"/>
      <point x="346" y="137" type="line"/>
      <point x="737" y="618" type="line" smooth="yes"/>
      <point x="842" y="748"/>
      <point x="977" y="966"/>
      <point x="977" y="1099" type="qcurve" smooth="yes"/>
      <point x="977" y="1259"/>
      <point x="763" y="1486"/>
      <point x="585" y="1486" type="qcurve" smooth="yes"/>
      <point x="407" y="1486"/>
      <point x="164" y="1235"/>
      <point x="164" y="1030" type="qcurve" smooth="yes"/>
      <point x="164" y="1020" type="line"/>
      <point x="321" y="1020" type="line"/>
      <point x="321" y="1030" type="line" smooth="yes"/>
      <point x="321" y="1184"/>
      <point x="474" y="1347"/>
      <point x="585" y="1347" type="qcurve" smooth="yes"/>
      <point x="696" y="1347"/>
      <point x="820" y="1198"/>
      <point x="820" y="1089" type="qcurve" smooth="yes"/>
      <point x="820" y="989"/>
      <point x="722" y="818"/>
      <point x="630" y="707" type="qcurve" smooth="yes"/>
      <point x="162" y="124" type="line"/>
    </contour>
  </outline>
</glyph>
<glyph name="three" format="1">
  <advance width="1156"/>
  <unicode hex="0033"/>
  <outline>
    <contour>
      <point x="133" y="380" type="line" smooth="yes"/>
      <point x="133" y="200"/>
      <point x="371" y="-30"/>
      <point x="558" y="-30" type="qcurve" smooth="yes"/>
      <point x="744" y="-30"/>
      <point x="987" y="200"/>
      <point x="987" y="401" type="qcurve" smooth="yes"/>
      <point x="987" y="540"/>
      <point x="844" y="730"/>
      <point x="727" y="761" type="qcurve"/>
      <point x="727" y="765" type="line"/>
      <point x="836" y="816"/>
      <point x="937" y="998"/>
      <point x="937" y="1100" type="qcurve" smooth="yes"/>
      <point x="937" y="1270"/>
      <point x="726" y="1486"/>
      <point x="558" y="1486" type="qcurve" smooth="yes"/>
      <point x="390" y="1486"/>
      <point x="171" y="1262"/>
      <point x="171" y="1100" type="qcurve" smooth="yes"/>
      <point x="171" y="1090" type="line"/>
      <point x="325" y="1090" type="line"/>
      <point x="325" y="1100" type="line" smooth="yes"/>
      <point x="325" y="1219"/>
      <point x="457" y="1347"/>
      <point x="558" y="1347" type="qcurve" smooth="yes"/>
      <point x="658" y="1347"/>
      <point x="778" y="1219"/>
      <point x="778" y="1092" type="qcurve" smooth="yes"/>
      <point x="778" y="968"/>
      <point x="640" y="827"/>
      <point x="512" y="827" type="qcurve" smooth="yes"/>
      <point x="412" y="827" type="line"/>
      <point x="412" y="691" type="line"/>
      <point x="521" y="691" type="line" smooth="yes"/>
      <point x="658" y="691"/>
      <point x="826" y="544"/>
      <point x="826" y="400" type="qcurve" smooth="yes"/>
      <point x="826" y="251"/>
      <point x="680" y="109"/>
      <point x="558" y="109" type="qcurve" smooth="yes"/>
      <point x="436" y="109"/>
      <point x="287" y="251"/>
      <point x="287" y="380" type="qcurve" smooth="yes"/>
      <point x="287" y="390" type="line"/>
      <point x="133" y="390" type="line"/>
    </contour>
  </outline>
</glyph>
<glyph name="four" format="1">
  <advance width="1156"/>
  <unicode hex="0034"/>
  <outline>
    <contour>
      <point x="719" y="0" type="line"/>
      <point x="869" y="0" type="line"/>
      <point x="869" y="1456" type="line"/>
      <point x="733" y="1456" type="line"/>
      <point x="93" y="462" type="line"/>
      <point x="93" y="347" type="line"/>
      <point x="1063" y="347" type="line"/>
      <point x="1063" y="486" type="line"/>
      <point x="827" y="486" type="line"/>
      <point x="768" y="486" type="line"/>
      <point x="269" y="486" type="line"/>
      <point x="708" y="1155" type="line"/>
      <point x="719" y="1155" type="line"/>
      <point x="719" y="441" type="line"/>
      <point x="719" y="397" type="line"/>
    </contour>
  </outline>
</glyph>
<glyph name="eight" format="1">
  <advance width="1156"/>
  <unicode hex="0038"/>
  <outline>
    <contour>
      <point x="157" y="384" type="qcurve" smooth="yes"/>
      <point x="157" y="187"/>
      <point x="399" y="-30"/>
      <point x="578" y="-30" type="qcurve" smooth="yes"/>
      <point x="757" y="-30"/>
      <point x="999" y="187"/>
      <point x="999" y="384" type="qcurve" smooth="yes"/>
      <point x="999" y="515"/>
      <point x="869" y="699"/>
      <point x="764" y="743" type="qcurve"/>
      <point x="764" y="747" type="line"/>
      <point x="846" y="790"/>
      <point x="956" y="968"/>
      <point x="956" y="1089" type="qcurve" smooth="yes"/>
      <point x="956" y="1268"/>
      <point x="738" y="1486"/>
      <point x="578" y="1486" type="qcurve" smooth="yes"/>
      <point x="418" y="1486"/>
      <point x="200" y="1268"/>
      <point x="200" y="1089" type="qcurve" smooth="yes"/>
      <point x="200" y="968"/>
      <point x="310" y="790"/>
      <point x="392" y="747" type="qcurve"/>
      <point x="392" y="743" type="line"/>
      <point x="287" y="699"/>
      <point x="157" y="515"/>
    </contour>
    <contour>
      <point x="313" y="392" type="qcurve" smooth="yes"/>
      <point x="313" y="518"/>
      <point x="456" y="676"/>
      <point x="578" y="676" type="qcurve" smooth="yes"/>
      <point x="700" y="676"/>
      <point x="842" y="518"/>
      <point x="842" y="392" type="qcurve" smooth="yes"/>
      <point x="842" y="265"/>
      <point x="700" y="109"/>
      <point x="578" y="109" type="qcurve" smooth="yes"/>
      <point x="456" y="109"/>
      <point x="313" y="265"/>
    </contour>
    <contour>
      <point x="353" y="1081" type="qcurve" smooth="yes"/>
      <point x="353" y="1198"/>
      <point x="475" y="1347"/>
      <point x="578" y="1347" type="qcurve" smooth="yes"/>
      <point x="681" y="1347"/>
      <point x="803" y="1198"/>
      <point x="803" y="1081" type="qcurve" smooth="yes"/>
      <point x="803" y="965"/>
      <point x="681" y="814"/>
      <point x="578" y="814" type="qcurve" smooth="yes"/>
      <point x="475" y="814"/>
      <point x="353" y="965"/>
    </contour>
  </outline>
</glyph>
<glyph name="nine" format="1">
  <advance width="1156"/>
  <unicode hex="0039"/>
  <outline>
    <contour>
      <point x="128" y="1002" type="qcurve" smooth="yes"/>
      <point x="128" y="789"/>
      <point x="347" y="527"/>
      <point x="527" y="527" type="qcurve" smooth="yes"/>
      <point x="705" y="527"/>
      <point x="925" y="790"/>
      <point x="925" y="1002" type="qcurve"/>
      <point x="865" y="1002" type="line"/>
      <point x="865" y="846"/>
      <point x="679" y="666"/>
      <point x="558" y="666" type="qcurve" smooth="yes"/>
      <point x="428" y="666"/>
      <point x="286" y="841"/>
      <point x="286" y="1002" type="qcurve" smooth="yes"/>
      <point x="286" y="1166"/>
      <point x="428" y="1347"/>
      <point x="558" y="1347" type="qcurve" smooth="yes"/>
      <point x="688" y="1347"/>
      <point x="859" y="1123"/>
      <point x="859" y="852" type="qcurve" smooth="yes"/>
      <point x="859" y="802" type="line" smooth="yes"/>
      <point x="859" y="449"/>
      <point x="566" y="109"/>
      <point x="314" y="109" type="qcurve" smooth="yes"/>
      <point x="295" y="109" type="line"/>
      <point x="295" y="-30" type="line"/>
      <point x="314" y="-30" type="line" smooth="yes"/>
      <point x="649" y="-30"/>
      <point x="1015" y="431"/>
      <point x="1015" y="812" type="qcurve" smooth="yes"/>
      <point x="1015" y="842" type="line" smooth="yes"/>
      <point x="1015" y="1182"/>
      <point x="745" y="1486"/>
      <point x="558" y="1486" type="qcurve" smooth="yes"/>
      <point x="371" y="1486"/>
      <point x="128" y="1218"/>
    </contour>
  </outline>
</glyph>
<glyph name="semicolon" format="1">
  <advance width="565.44"/>
  <unicode hex="003B"/>
  <outline>
    <contour>
      <point x="131.04" y="-202.52" type="qcurve"/>
      <point x="222.84" y="-267.42" type="line"/>
      <point x="290.56" y="-205.28"/>
      <point x="371.68" y="-37.120000000000005"/>
      <point x="371.68" y="64.96000000000001" type="qcurve" smooth="yes"/>
      <point x="371.68" y="204.16" type="line"/>
      <point x="217.6" y="204.16" type="line"/>
      <point x="217.6" y="64.96000000000001" type="line" smooth="yes"/>
      <point x="217.6" y="-18.560000000000002"/>
      <point x="172.8" y="-143.2"/>
    </contour>
    <contour>
      <point x="176.0" y="903.92" type="qcurve" smooth="yes"/>
      <point x="176.0" y="858.16"/>
      <point x="231.12" y="792.84"/>
      <point x="282.72" y="792.84" type="qcurve" smooth="yes"/>
      <point x="334.32" y="792.84"/>
      <point x="389.44" y="858.16"/>
      <point x="389.44" y="903.92" type="qcurve" smooth="yes"/>
      <point x="389.44" y="949.68"/>
      <point x="334.32" y="1015.0"/>
      <point x="282.72" y="1015.0" type="qcurve" smooth="yes"/>
      <point x="231.12" y="1015.0"/>
      <point x="176.0" y="949.68"/>
    </contour>
  </outline>
</glyph>
<glyph name="less" format="1">
  <advance width="1133.28"/>
  <unicode hex="003C"/>
  <outline>
    <contour>
      <point x="953.28" y="229.84" type="line"/>
      <point x="953.28" y="394.8" type="line"/>
      <point x="342.26" y="674.0" type="line"/>
      <point x="953.28" y="953.2" type="line"/>
      <point x="953.28" y="1118.16" type="line"/>
      <point x="172.0" y="738.44" type="line"/>
      <point x="172.0" y="609.56" type="line"/>
    </contour>
  </outline>
</glyph>
<glyph name="at" format="1">
  <advance width="1962.52"/>
  <unicode hex="0040"/>
  <outline>
    <contour>
      <point x="589.86" y="400.0" type="qcurve" smooth="yes"/>
      <point x="589.86" y="220.0"/>
      <point x="736.949344978166" y="0.0"/>
      <point x="861.74" y="0.0" type="qcurve" smooth="yes"/>
      <point x="935.74" y="0.0"/>
      <point x="1062.72" y="100.54"/>
      <point x="1105.1" y="181.8" type="qcurve"/>
      <point x="1140.9" y="100.18"/>
      <point x="1301.4" y="0.0"/>
      <point x="1410.74" y="0.0" type="qcurve" smooth="yes"/>
      <point x="1594.54" y="0.0"/>
      <point x="1848.52" y="360.0"/>
      <point x="1848.52" y="650.0" type="qcurve" smooth="yes"/>
      <point x="1848.52" y="1000.0"/>
      <point x="1394.52" y="1486.0"/>
      <point x="1024.04" y="1486.0" type="qcurve" smooth="yes"/>
      <point x="652.6" y="1486.0"/>
      <point x="114.0" y="880.0"/>
      <point x="114.0" y="460.0" type="qcurve" smooth="yes"/>
      <point x="114.0" y="40.0"/>
      <point x="595.3" y="-446.0"/>
      <point x="928.54" y="-446.0" type="qcurve" smooth="yes"/>
      <point x="1062.24" y="-446.0"/>
      <point x="1243.6" y="-400.0"/>
      <point x="1310.54" y="-356.0" type="qcurve"/>
      <point x="1310.54" y="-219.07999999999998" type="line"/>
      <point x="1247.42" y="-255.07999999999998"/>
      <point x="1062.24" y="-309.08"/>
      <point x="928.54" y="-309.08" type="qcurve" smooth="yes"/>
      <point x="645.5885714285714" y="-309.08"/>
      <point x="268.32" y="90.82000000000001"/>
      <point x="268.32" y="460.0" type="qcurve" smooth="yes"/>
      <point x="268.32" y="827.92"/>
      <point x="702.859" y="1349.08"/>
      <point x="1024.04" y="1349.08" type="qcurve" smooth="yes"/>
      <point x="1344.8936312849162" y="1349.08"/>
      <point x="1699.72" y="927.56"/>
      <point x="1699.72" y="650.0" type="qcurve" smooth="yes"/>
      <point x="1699.72" y="413.16"/>
      <point x="1531.863125" y="120.52000000000001"/>
      <point x="1398.24" y="120.52000000000001" type="qcurve" smooth="yes"/>
      <point x="1316.0758620689655" y="120.52000000000001"/>
      <point x="1223.7948464006204" y="221.10987171966303"/>
      <point x="1249.1200000000001" y="350.0" type="qcurve" smooth="yes"/>
      <point x="1363.72" y="946.0" type="line"/>
      <point x="1290.82" y="946.0" type="line"/>
      <point x="1248.44" y="983.74"/>
      <point x="1113.5" y="1052.0"/>
      <point x="1033.64" y="1052.0" type="qcurve" smooth="yes"/>
      <point x="857.1657142857143" y="1052.0"/>
      <point x="589.86" y="680.0"/>
    </contour>
    <contour>
      <point x="747.22" y="400.0" type="qcurve" smooth="yes"/>
      <point x="747.22" y="627.02"/>
      <point x="922.7295081967213" y="928.2"/>
      <point x="1057.16" y="928.2" type="qcurve" smooth="yes"/>
      <point x="1095.1200000000001" y="928.2"/>
      <point x="1172.0" y="903.5"/>
      <point x="1199.54" y="882.6" type="qcurve"/>
      <point x="1100.44" y="390.0" type="line" smooth="yes"/>
      <point x="1071.64" y="249.92000000000002"/>
      <point x="966.74" y="136.92000000000002"/>
      <point x="899.8" y="136.92000000000002" type="qcurve" smooth="yes"/>
      <point x="825.8387096774194" y="136.92000000000002"/>
      <point x="747.22" y="270.64"/>
    </contour>
  </outline>
</glyph>
<glyph name="B" format="1">
  <advance width="1152.24"/>
  <unicode hex="0042"/>
  <outline>
    <contour>
      <point x="170.0" y="0.0" type="line"/>
      <point x="622.64" y="0.0" type="line" smooth="yes"/>
      <point x="817.8225" y="0.0"/>
      <point x="1052.24" y="217.48"/>
      <point x="1052.24" y="414.96" type="qcurve" smooth="yes"/>
      <point x="1052.24" y="557.12"/>
      <point x="922.1838688354982" y="733.4119654296733"/>
      <point x="818.44" y="763.64" type="qcurve"/>
      <point x="818.44" y="767.64" type="line"/>
      <point x="902.464709473828" y="797.7341189240277"/>
      <point x="1014.24" y="952.52"/>
      <point x="1014.24" y="1074.32" type="qcurve" smooth="yes"/>
      <point x="1014.24" y="1271.8"/>
      <point x="789.8501694915254" y="1456.0"/>
      <point x="592.64" y="1456.0" type="qcurve" smooth="yes"/>
      <point x="170.0" y="1456.0" type="line"/>
    </contour>
    <contour>
      <point x="325.84000000000003" y="138.56" type="line"/>
      <point x="325.84000000000003" y="689.54" type="line"/>
      <point x="622.64" y="689.54" type="line" smooth="yes"/>
      <point x="763.3296551724138" y="689.54"/>
      <point x="894.64" y="541.44"/>
      <point x="894.64" y="414.96" type="qcurve" smooth="yes"/>
      <point x="894.64" y="288.48"/>
      <point x="763.3296551724138" y="138.56"/>
      <point x="622.64" y="138.56" type="qcurve" smooth="yes"/>
    </contour>
    <contour>
      <point x="325.84000000000003" y="826.46" type="line"/>
      <point x="325.84000000000003" y="1317.44" type="line"/>
      <point x="592.64" y="1317.44" type="line" smooth="yes"/>
      <point x="733.0655319148937" y="1317.44"/>
      <point x="856.64" y="1191.52"/>
      <point x="856.64" y="1074.32" type="qcurve" smooth="yes"/>
      <point x="856.64" y="957.84"/>
      <point x="733.0655319148937" y="826.46"/>
      <point x="592.64" y="826.46" type="qcurve" smooth="yes"/>
    </contour>
  </outline>
</glyph>
<glyph name="C" format="1">
  <advance width="1204.76"/>
  <unicode hex="0043"/>
  <outline>
    <contour>
      <point x="115.0" y="682.0" type="line" smooth="yes"/>
      <point x="115.0" y="346.0"/>
      <point x="425.56" y="-30.0"/>
      <point x="659.64" y="-30.0" type="qcurve" smooth="yes"/>
      <point x="891.5" y="-30.0"/>
      <point x="1137.54" y="256.0"/>
      <point x="1153.94" y="456.0" type="qcurve" smooth="yes"/>
      <point x="1154.76" y="466.0" type="line"/>
      <point x="995.64" y="466.0" type="line"/>
      <point x="994.82" y="456.0" type="line" smooth="yes"/>
      <point x="984.02" y="328.44"/>
      <point x="826.14" y="113.48"/>
      <point x="659.64" y="113.48" type="qcurve" smooth="yes"/>
      <point x="491.34000000000003" y="113.48"/>
      <point x="275.64" y="416.28000000000003"/>
      <point x="275.64" y="682.0" type="qcurve" smooth="yes"/>
      <point x="275.64" y="774.0" type="line" smooth="yes"/>
      <point x="275.64" y="1039.72"/>
      <point x="491.34000000000003" y="1342.52"/>
      <point x="659.64" y="1342.52" type="qcurve" smooth="yes"/>
      <point x="826.14" y="1342.52"/>
      <point x="984.02" y="1127.56"/>
      <point x="994.82" y="1000.0" type="qcurve" smooth="yes"/>
      <point x="995.64" y="990.0" type="line"/>
      <point x="1154.76" y="990.0" type="line"/>
      <point x="1153.94" y="1000.0" type="line" smooth="yes"/>
      <point x="1137.54" y="1200.0"/>
      <point x="891.5" y="1486.0"/>
      <point x="659.64" y="1486.0" type="qcurve" smooth="yes"/>
      <point x="425.56" y="1486.0"/>
      <point x="115.0" y="1110.0"/>
      <point x="115.0" y="774.0" type="qcurve" smooth="yes"/>
    </contour>
  </outline>
</glyph>
<glyph name="E" format="1">
  <advance width="1061.08"/>
  <unicode hex="0045"/>
  <outline>
    <contour>
      <point x="170.0" y="0.0" type="line"/>
      <point x="993.08" y="0.0" type="line"/>
      <point x="993.08" y="138.56" type="line"/>
      <point x="328.88" y="138.56" type="line"/>
      <point x="328.88" y="681.72" type="line"/>
      <point x="891.08" y="681.72" type="line"/>
      <point x="891.08" y="820.28" type="line"/>
      <point x="328.88" y="820.28" type="line"/>
      <point x="328.88" y="1317.44" type="line"/>
      <point x="983.08" y="1317.44" type="line"/>
      <point x="983.08" y="1456.0" type="line"/>
      <point x="170.0" y="1456.0" type="line"/>
    </contour>
  </outline>
</glyph>
<glyph name="H" format="1">
  <advance width="1341.3600000000001"/>
  <unicode hex="0048"/>
  <outline>
    <contour>
      <point x="170.0" y="0.0" type="line"/>
      <point x="328.88" y="0.0" type="line"/>
      <point x="328.88" y="681.72" type="line"/>
      <point x="1012.48" y="681.72" type="line"/>
      <point x="1012.48" y="0.0" type="line"/>
      <point x="1171.3600000000001" y="0.0" type="line"/>
      <point x="1171.3600000000001" y="1456.0" type="line"/>
      <point x="1012.48" y="1456.0" type="line"/>
      <point x="1012.48" y="820.28" type="line"/>
      <point x="328.88" y="820.28" type="line"/>
      <point x="328.88" y="1456.0" type="line"/>
      <point x="170.0" y="1456.0" type="line"/>
    </contour>
  </outline>
</glyph>
<glyph name="J" format="1">
  <advance width="990.8"/>
  <unicode hex="004A"/>
  <outline>
    <contour>
      <point x="25.0" y="400.0" type="line" smooth="yes"/>
      <point x="25.0" y="200.0"/>
      <point x="247.72" y="-30.0"/>
      <point x="430.52" y="-30.0" type="qcurve" smooth="yes"/>
      <point x="613.32" y="-30.0"/>
      <point x="835.8" y="214.82"/>
      <point x="835.8" y="425.0" type="qcurve" smooth="yes"/>
      <point x="835.8" y="1456.0" type="line"/>
      <point x="676.9200000000001" y="1456.0" type="line"/>
      <point x="676.9200000000001" y="425.0" type="line" smooth="yes"/>
      <point x="676.9200000000001" y="275.27943189052115"/>
      <point x="547.0" y="113.48"/>
      <point x="430.52" y="113.48" type="qcurve" smooth="yes"/>
      <point x="314.04" y="113.48"/>
      <point x="184.12" y="259.92"/>
      <point x="184.12" y="400.0" type="qcurve" smooth="yes"/>
      <point x="184.12" y="410.0" type="line"/>
      <point x="25.0" y="410.0" type="line"/>
    </contour>
  </outline>
</glyph>
<glyph name="M" format="1">
  <advance width="1655.42"/>
  <unicode hex="004D"/>
  <outline>
    <contour>
      <point x="170.0" y="0.0" type="line"/>
      <point x="321.28" y="0.0" type="line"/>
      <point x="321.28" y="1059.9" type="line" smooth="yes"/>
      <point x="321.28" y="1091.7"/>
      <point x="315.64" y="1171.2"/>
      <point x="312.0" y="1203.0" type="qcurve"/>
      <point x="323.1" y="1203.0" type="line"/>
      <point x="328.74" y="1171.2"/>
      <point x="351.12" y="1091.7"/>
      <point x="362.58" y="1059.9" type="qcurve" smooth="yes"/>
      <point x="756.6" y="0.0" type="line"/>
      <point x="895.78" y="0.0" type="line"/>
      <point x="1289.8" y="1059.9" type="line" smooth="yes"/>
      <point x="1301.26" y="1091.7"/>
      <point x="1323.64" y="1171.2"/>
      <point x="1329.28" y="1203.0" type="qcurve"/>
      <point x="1340.56" y="1203.0" type="line"/>
      <point x="1336.74" y="1171.2"/>
      <point x="1331.1" y="1091.7"/>
      <point x="1331.1" y="1059.9" type="qcurve" smooth="yes"/>
      <point x="1331.1" y="0.0" type="line"/>
      <point x="1485.42" y="0.0" type="line"/>
      <point x="1485.42" y="1456.0" type="line"/>
      <point x="1280.8600000000001" y="1456.0" type="line"/>
      <point x="870.4" y="348.8" type="line" smooth="yes"/>
      <point x="858.94" y="317.0"/>
      <point x="839.38" y="251.10000000000002"/>
      <point x="831.9200000000001" y="217.5" type="qcurve"/>
      <point x="824.46" y="217.5" type="line"/>
      <point x="817.0" y="251.10000000000002"/>
      <point x="797.44" y="317.0"/>
      <point x="785.98" y="348.8" type="qcurve" smooth="yes"/>
      <point x="375.52" y="1456.0" type="line"/>
      <point x="170.0" y="1456.0" type="line"/>
    </contour>
  </outline>
</glyph>
<glyph name="N" format="1">
  <advance width="1340.6"/>
  <unicode hex="004E"/>
  <outline>
    <contour>
      <point x="170.0" y="0.0" type="line"/>
      <point x="325.84000000000003" y="0.0" type="line"/>
      <point x="325.84000000000003" y="1024.3" type="line" smooth="yes"/>
      <point x="325.84000000000003" y="1056.1"/>
      <point x="322.2" y="1131.1"/>
      <point x="318.56" y="1162.9" type="qcurve"/>
      <point x="327.66" y="1162.9" type="line"/>
      <point x="340.22" y="1135.2"/>
      <point x="370.98" y="1074.3"/>
      <point x="389.54" y="1044.3" type="qcurve" smooth="yes"/>
      <point x="999.1600000000001" y="0.0" type="line"/>
      <point x="1170.6" y="0.0" type="line"/>
      <point x="1170.6" y="1456.0" type="line"/>
      <point x="1014.76" y="1456.0" type="line"/>
      <point x="1014.76" y="431.52" type="line" smooth="yes"/>
      <point x="1014.76" y="399.72"/>
      <point x="1018.4" y="324.72"/>
      <point x="1022.04" y="292.92" type="qcurve"/>
      <point x="1012.94" y="292.92" type="line"/>
      <point x="1000.38" y="320.62"/>
      <point x="969.62" y="381.52"/>
      <point x="951.0600000000001" y="411.52" type="qcurve" smooth="yes"/>
      <point x="341.44" y="1456.0" type="line"/>
      <point x="170.0" y="1456.0" type="line"/>
    </contour>
    <contour>
      <point x="679.04" y="1432.0" type="move" name="top"/>
    </contour>
  </outline>
</glyph>
<glyph name="P" format="1">
  <advance width="1098.0"/>
  <unicode hex="0050"/>
  <outline>
    <contour>
      <point x="170.0" y="0.0" type="line"/>
      <point x="328.88" y="0.0" type="line"/>
      <point x="328.88" y="579.0" type="line"/>
      <point x="593.6800000000001" y="579.0" type="line" smooth="yes"/>
      <point x="811.1778313253012" y="579.0"/>
      <point x="1039.0" y="822.38"/>
      <point x="1039.0" y="1019.14" type="qcurve" smooth="yes"/>
      <point x="1039.0" y="1215.9"/>
      <point x="811.1778313253012" y="1456.0"/>
      <point x="593.6800000000001" y="1456.0" type="qcurve" smooth="yes"/>
      <point x="170.0" y="1456.0" type="line"/>
    </contour>
    <contour>
      <point x="328.88" y="717.5600000000001" type="line"/>
      <point x="328.88" y="1317.44" type="line"/>
      <point x="593.6800000000001" y="1317.44" type="line" smooth="yes"/>
      <point x="752.6800000000001" y="1317.44"/>
      <point x="879.88" y="1145.98"/>
      <point x="879.88" y="1019.14" type="qcurve" smooth="yes"/>
      <point x="879.88" y="892.3"/>
      <point x="752.6800000000001" y="717.5600000000001"/>
      <point x="593.6800000000001" y="717.5600000000001" type="qcurve" smooth="yes"/>
    </contour>
  </outline>
</glyph>
<glyph name="Q" format="1">
  <advance width="1332.08"/>
  <unicode hex="0051"/>
  <outline>
    <contour>
      <point x="115.0" y="682.0" type="line" smooth="yes"/>
      <point x="115.0" y="346.0"/>
      <point x="422.32" y="-30.0"/>
      <point x="666.04" y="-30.0" type="qcurve" smooth="yes"/>
      <point x="909.76" y="-30.0"/>
      <point x="1217.08" y="346.0"/>
      <point x="1217.08" y="682.0" type="qcurve" smooth="yes"/>
      <point x="1217.08" y="774.0" type="line" smooth="yes"/>
      <point x="1217.08" y="1110.0"/>
      <point x="909.76" y="1486.0"/>
      <point x="666.04" y="1486.0" type="qcurve" smooth="yes"/>
      <point x="422.32" y="1486.0"/>
      <point x="115.0" y="1110.0"/>
      <point x="115.0" y="774.0" type="qcurve" smooth="yes"/>
    </contour>
    <contour>
      <point x="275.64" y="682.0" type="qcurve" smooth="yes"/>
      <point x="275.64" y="774.0" type="line" smooth="yes"/>
      <point x="275.64" y="1040.8"/>
      <point x="488.40000000000003" y="1342.52"/>
      <point x="666.04" y="1342.52" type="qcurve" smooth="yes"/>
      <point x="843.6800000000001" y="1342.52"/>
      <point x="1056.44" y="1040.8"/>
      <point x="1056.44" y="774.0" type="qcurve" smooth="yes"/>
      <point x="1056.44" y="682.0" type="line" smooth="yes"/>
      <point x="1056.44" y="415.2"/>
      <point x="843.6800000000001" y="113.48"/>
      <point x="666.04" y="113.48" type="qcurve" smooth="yes"/>
      <point x="488.40000000000003" y="113.48"/>
      <point x="275.64" y="415.2"/>
    </contour>
    <contour>
      <point x="1111.2" y="-242.8" type="line"/>
      <point x="1218.64" y="-129.72" type="line"/>
      <point x="826.44" y="182.18" type="line"/>
      <point x="722.8000000000001" y="73.19999999999999" type="line"/>
    </contour>
  </outline>
</glyph>
<glyph name="R" format="1">
  <advance width="1134.32"/>
  <unicode hex="0052"/>
  <outline>
    <contour>
      <point x="170.0" y="0.0" type="line"/>
      <point x="328.88" y="0.0" type="line"/>
      <point x="328.88" y="604.08" type="line"/>
      <point x="585.6800000000001" y="604.08" type="line" smooth="yes"/>
      <point x="798.0888524590164" y="604.08"/>
      <point x="1022.8" y="841.02"/>
      <point x="1022.8" y="1032.5" type="qcurve" smooth="yes"/>
      <point x="1022.8" y="1223.98"/>
      <point x="798.0888524590164" y="1456.0"/>
      <point x="585.6800000000001" y="1456.0" type="qcurve" smooth="yes"/>
      <point x="170.0" y="1456.0" type="line"/>
    </contour>
    <contour>
      <point x="328.88" y="741.0" type="line"/>
      <point x="328.88" y="1319.08" type="line"/>
      <point x="585.6800000000001" y="1319.08" type="line" smooth="yes"/>
      <point x="741.5854054054055" y="1319.08"/>
      <point x="863.6800000000001" y="1154.8"/>
      <point x="863.6800000000001" y="1032.5" type="qcurve" smooth="yes"/>
      <point x="863.6800000000001" y="910.2"/>
      <point x="741.5854054054055" y="741.0"/>
      <point x="585.6800000000001" y="741.0" type="qcurve" smooth="yes"/>
    </contour>
    <contour>
      <point x="917.88" y="0.0" type="line"/>
      <point x="1094.32" y="0.0" type="line"/>
      <point x="747.48" y="672.0" type="line"/>
      <point x="578.08" y="672.0" type="line"/>
    </contour>
  </outline>
</glyph>
<glyph name="S" format="1">
  <advance width="1106.18"/>
  <unicode hex="0053"/>
  <outline>
    <contour>
      <point x="90.0" y="392.6" type="line" smooth="yes"/>
      <point x="90.0" y="197.12"/>
      <point x="348.44" y="-30.0"/>
      <point x="562.58" y="-30.0" type="qcurve" smooth="yes"/>
      <point x="776.48" y="-30.0"/>
      <point x="1026.18" y="196.04"/>
      <point x="1026.18" y="372.8" type="qcurve" smooth="yes"/>
      <point x="1026.18" y="548.12"/>
      <point x="828.4" y="745.04"/>
      <point x="621.4" y="813.92" type="qcurve" smooth="yes"/>
      <point x="414.4" y="882.8"/>
      <point x="274.9" y="1001.44"/>
      <point x="274.9" y="1097.2" type="qcurve" smooth="yes"/>
      <point x="274.9" y="1210.98"/>
      <point x="410.46000000000004" y="1342.52"/>
      <point x="553.3" y="1342.52" type="qcurve" smooth="yes"/>
      <point x="696.14" y="1342.52"/>
      <point x="840.98" y="1190.26"/>
      <point x="840.98" y="1069.4" type="qcurve" smooth="yes"/>
      <point x="840.98" y="1053.8" type="line"/>
      <point x="999.86" y="1053.8" type="line"/>
      <point x="999.86" y="1069.4" type="line" smooth="yes"/>
      <point x="999.86" y="1243.24"/>
      <point x="757.9200000000001" y="1486.0"/>
      <point x="553.3" y="1486.0" type="qcurve" smooth="yes"/>
      <point x="348.74" y="1486.0"/>
      <point x="117.54" y="1263.78"/>
      <point x="117.54" y="1097.2" type="qcurve" smooth="yes"/>
      <point x="117.54" y="931.34"/>
      <point x="310.08" y="744.8"/>
      <point x="519.4" y="674.28" type="qcurve" smooth="yes"/>
      <point x="728.72" y="603.76"/>
      <point x="868.82" y="477.84"/>
      <point x="868.82" y="372.8" type="qcurve" smooth="yes"/>
      <point x="868.82" y="258.66"/>
      <point x="711.0600000000001" y="113.48"/>
      <point x="562.58" y="113.48" type="qcurve" smooth="yes"/>
      <point x="414.1" y="113.48"/>
      <point x="248.88" y="255.02"/>
      <point x="248.88" y="392.6" type="qcurve" smooth="yes"/>
      <point x="248.88" y="408.2" type="line"/>
      <point x="90.0" y="408.2" type="line"/>
    </contour>
  </outline>
</glyph>
<glyph name="V" format="1">
  <advance width="1129.44"/>
  <unicode hex="0056"/>
  <outline>
    <contour>
      <point x="0.0" y="1456.0" type="line"/>
      <point x="488.08000000000004" y="-10.0" type="line"/>
      <point x="641.36" y="-10.0" type="line"/>
      <point x="1129.44" y="1456.0" type="line"/>
      <point x="969.32" y="1456.0" type="line"/>
      <point x="605.12" y="342.0" type="line" smooth="yes"/>
      <point x="594.26" y="308.64"/>
      <point x="578.0" y="247.0"/>
      <point x="571.72" y="214.0" type="qcurve"/>
      <point x="561.72" y="214.0" type="line"/>
      <point x="555.44" y="247.0"/>
      <point x="539.1800000000001" y="308.64"/>
      <point x="528.32" y="342.0" type="qcurve" smooth="yes"/>
      <point x="167.16" y="1456.0" type="line"/>
    </contour>
  </outline>
</glyph>
<glyph name="W" format="1">
  <advance width="1682.64"/>
  <unicode hex="0057"/>
  <outline>
    <contour>
      <point x="382.8" y="-10.0" type="line"/>
      <point x="538.4" y="-10.0" type="line"/>
      <point x="819.1800000000001" y="1099.16" type="line" smooth="yes"/>
      <point x="827.82" y="1134.24"/>
      <point x="835.9200000000001" y="1198.66"/>
      <point x="838.74" y="1232.56" type="qcurve"/>
      <point x="843.72" y="1232.56" type="line"/>
      <point x="846.54" y="1198.66"/>
      <point x="854.64" y="1134.24"/>
      <point x="863.28" y="1099.16" type="qcurve" smooth="yes"/>
      <point x="1144.24" y="-10.0" type="line"/>
      <point x="1299.84" y="-10.0" type="line"/>
      <point x="1632.64" y="1456.0" type="line"/>
      <point x="1476.4" y="1456.0" type="line"/>
      <point x="1241.0" y="351.36" type="line" smooth="yes"/>
      <point x="1233.3600000000001" y="316.28000000000003"/>
      <point x="1227.08" y="250.06"/>
      <point x="1224.26" y="215.8" type="qcurve"/>
      <point x="1218.6200000000001" y="215.8" type="line"/>
      <point x="1215.8" y="250.06"/>
      <point x="1210.52" y="316.28000000000003"/>
      <point x="1201.88" y="351.36" type="qcurve" smooth="yes"/>
      <point x="924.64" y="1456.0" type="line"/>
      <point x="760.12" y="1456.0" type="line"/>
      <point x="489.76" y="351.36" type="line" smooth="yes"/>
      <point x="481.12" y="316.28000000000003"/>
      <point x="475.84000000000003" y="250.06"/>
      <point x="473.02" y="215.8" type="qcurve"/>
      <point x="467.38" y="215.8" type="line"/>
      <point x="464.56" y="250.06"/>
      <point x="458.28000000000003" y="316.28000000000003"/>
      <point x="450.64" y="351.36" type="qcurve" smooth="yes"/>
      <point x="208.36" y="1456.0" type="line"/>
      <point x="50.0" y="1456.0" type="line"/>
    </contour>
  </outline>
</glyph>
<glyph name="X" format="1">
  <advance width="1123.8400000000001"/>
  <unicode hex="0058"/>
  <outline>
    <contour>
      <point x="25.0" y="0.0" type="line"/>
      <point x="196.56" y="0.0" type="line"/>
      <point x="602.48" y="677.74" type="line"/>
      <point x="613.36" y="677.74" type="line"/>
      <point x="1075.28" y="1456.0" type="line"/>
      <point x="903.72" y="1456.0" type="line"/>
      <point x="521.42" y="798.26" type="line"/>
      <point x="510.72" y="798.26" type="line"/>
    </contour>
    <contour>
      <point x="48.56" y="1456.0" type="line"/>
      <point x="510.48" y="677.74" type="line"/>
      <point x="517.84" y="677.74" type="line"/>
      <point x="923.22" y="0.0" type="line"/>
      <point x="1098.8400000000001" y="0.0" type="line"/>
      <point x="613.6" y="798.26" type="line"/>
      <point x="606.0600000000001" y="798.26" type="line"/>
      <point x="224.0" y="1456.0" type="line"/>
    </contour>
  </outline>
</glyph>
<glyph name="Y" format="1">
  <advance width="1110.88"/>
  <unicode hex="0059"/>
  <outline>
    <contour>
      <point x="476.0" y="0.0" type="line"/>
      <point x="634.88" y="0.0" type="line"/>
      <point x="634.88" y="554.08" type="line"/>
      <point x="1095.88" y="1456.0" type="line"/>
      <point x="926.58" y="1456.0" type="line"/>
      <point x="610.96" y="839.1" type="line" smooth="yes"/>
      <point x="595.86" y="809.1"/>
      <point x="570.66" y="749.1"/>
      <point x="560.38" y="719.1" type="qcurve"/>
      <point x="554.74" y="719.1" type="line"/>
      <point x="544.28" y="749.1"/>
      <point x="518.9" y="809.1"/>
      <point x="503.98" y="839.1" type="qcurve" smooth="yes"/>
      <point x="191.52" y="1456.0" type="line"/>
      <point x="15.0" y="1456.0" type="line"/>
      <point x="476.0" y="554.08" type="line"/>
    </contour>
  </outline>
</glyph>
<glyph name="Z" format="1">
  <advance width="1053.66"/>
  <unicode hex="005A"/>
  <outline>
    <contour>
      <point x="36.0" y="0.0" type="line"/>
      <point x="1017.6600000000001" y="0.0" type="line"/>
      <point x="1017.6600000000001" y="138.56" type="line"/>
      <point x="225.82" y="138.56" type="line"/>
      <point x="985.6600000000001" y="1335.44" type="line"/>
      <point x="985.6600000000001" y="1456.0" type="line"/>
      <point x="48.0" y="1456.0" type="line"/>
      <point x="48.0" y="1317.44" type="line"/>
      <point x="795.84" y="1317.44" type="line"/>
      <point x="36.0" y="120.56" type="line"/>
    </contour>
  </outline>
</glyph>
<glyph name="bracketleft" format="1">
  <advance width="618.8"/>
  <unicode hex="005B"/>
  <outline>
    <contour>
      <point x="144.0" y="-310.0" type="line"/>
      <point x="567.38" y="-310.0" type="line"/>
      <point x="567.38" y="-169.79999999999998" type="line"/>
      <point x="297.8" y="-169.79999999999998" type="line"/>
      <point x="297.8" y="1315.8" type="line"/>
      <point x="567.38" y="1315.8" type="line"/>
      <point x="567.38" y="1456.0" type="line"/>
      <point x="144.0" y="1456.0" type="line"/>
    </contour>
  </outline>
</glyph>
<glyph name="backslash" format="1">
  <advance width="519.9200000000001"/>
  <unicode hex="005C"/>
  <outline>
    <contour>
      <point x="-100.0" y="1456.0" type="line"/>
      <point x="473.98" y="-125.0" type="line"/>
      <point x="619.9200000000001" y="-125.0" type="line"/>
      <point x="46.120000000000005" y="1456.0" type="line"/>
    </contour>
  </outline>
</glyph>
<glyph name="underscore" format="1">
  <advance width="882.4200000000001"/>
  <unicode hex="005F"/>
  <outline>
    <contour>
      <point x="0.0" y="-245.12" type="line"/>
      <point x="294.14" y="-245.12" type="line"/>
      <point x="294.14" y="-100.0" type="line"/>
      <point x="0.0" y="-100.0" type="line"/>
    </contour>
    <contour>
      <point x="294.14" y="-245.12" type="line"/>
      <point x="588.28" y="-245.12" type="line"/>
      <point x="588.28" y="-100.0" type="line"/>
      <point x="294.14" y="-100.0" type="line"/>
    </contour>
    <contour>
      <point x="588.28" y="-245.12" type="line"/>
      <point x="882.4200000000001" y="-245.12" type="line"/>
      <point x="882.4200000000001" y="-100.0" type="line"/>
      <point x="588.28" y="-100.0" type="line"/>
    </contour>
  </outline>
</glyph>
<glyph name="a" format="1">
  <advance width="999.98"/>
  <unicode hex="0061"/>
  <outline>
    <contour>
      <point x="90.0" y="291.35" type="qcurve" smooth="yes"/>
      <point x="90.0" y="139.5742424242424"/>
      <point x="272.82" y="-20.0"/>
      <point x="408.6" y="-20.0" type="qcurve" smooth="yes"/>
      <point x="524.4531707317074" y="-20.0"/>
      <point x="675.7844891102329" y="78.33572164389021"/>
      <point x="708.8" y="139.7" type="qcurve"/>
      <point x="712.1110069367649" y="101.15324084313609"/>
      <point x="734.003349275127" y="24.487712673812265"/>
      <point x="747.48" y="0.0" type="qcurve"/>
      <point x="895.98" y="0.0" type="line"/>
      <point x="895.98" y="16.0" type="line"/>
      <point x="878.88" y="60.0"/>
      <point x="859.78" y="175.0"/>
      <point x="859.78" y="240.0" type="qcurve" smooth="yes"/>
      <point x="859.78" y="680.25" type="line" smooth="yes"/>
      <point x="859.78" y="853.6616022099447"/>
      <point x="677.0600000000001" y="1029.0"/>
      <point x="511.18" y="1029.0" type="qcurve" smooth="yes"/>
      <point x="342.72" y="1029.0"/>
      <point x="149.84" y="850.85"/>
      <point x="149.84" y="730.25" type="qcurve" smooth="yes"/>
      <point x="149.84" y="725.25" type="line"/>
      <point x="302.44" y="725.25" type="line"/>
      <point x="302.44" y="730.25" type="line" smooth="yes"/>
      <point x="302.44" y="796.97"/>
      <point x="396.6003636363636" y="898.64"/>
      <point x="506.36" y="898.64" type="qcurve" smooth="yes"/>
      <point x="616.003850931677" y="898.64"/>
      <point x="705.46" y="777.52"/>
      <point x="705.46" y="680.25" type="qcurve" smooth="yes"/>
      <point x="705.46" y="609.85" type="line"/>
      <point x="487.26" y="609.85" type="line" smooth="yes"/>
      <point x="314.12" y="609.85"/>
      <point x="90.0" y="441.2277731092437"/>
    </contour>
    <contour>
      <point x="244.32" y="299.55" type="qcurve" smooth="yes"/>
      <point x="244.32" y="387.61833333333334"/>
      <point x="377.11885714285717" y="492.61"/>
      <point x="506.36" y="492.61" type="qcurve" smooth="yes"/>
      <point x="705.46" y="492.61" type="line"/>
      <point x="705.46" y="346.2" type="line"/>
      <point x="705.46" y="261.1831223628692"/>
      <point x="541.0943661971831" y="110.36000000000001"/>
      <point x="439.6" y="110.36000000000001" type="qcurve" smooth="yes"/>
      <point x="339.2493670886076" y="110.36000000000001"/>
      <point x="244.32" y="210.3609375"/>
    </contour>
  </outline>
</glyph>
<glyph name="b" format="1">
  <advance width="1061.76"/>
  <unicode hex="0062"/>
  <outline>
    <contour>
      <point x="148.0" y="0.0" type="line"/>
      <point x="287.92" y="0.0" type="line"/>
      <point x="293.64" y="131.6" type="line"/>
      <point x="298.5" y="131.6" type="line"/>
      <point x="335.49602524483095" y="68.82359619624447"/>
      <point x="486.93513513513517" y="-20.0"/>
      <point x="586.5" y="-20.0" type="qcurve" smooth="yes"/>
      <point x="765.9006153846154" y="-20.0"/>
      <point x="976.76" y="265.0"/>
      <point x="976.76" y="483.5" type="qcurve" smooth="yes"/>
      <point x="976.76" y="515.5" type="line" smooth="yes"/>
      <point x="976.76" y="734.105"/>
      <point x="765.9006153846154" y="1019.0"/>
      <point x="586.5" y="1019.0" type="qcurve" smooth="yes"/>
      <point x="486.9142857142857" y="1019.0"/>
      <point x="345.0511756128612" y="943.0643992830763"/>
      <point x="302.32" y="880.4" type="qcurve"/>
      <point x="302.32" y="1536.0" type="line"/>
      <point x="148.0" y="1536.0" type="line"/>
    </contour>
    <contour>
      <point x="302.32" y="286.8" type="qcurve"/>
      <point x="302.32" y="712.2" type="line"/>
      <point x="331.1255223842068" y="779.7672910334102"/>
      <point x="459.7768" y="885.36"/>
      <point x="551.9" y="885.36" type="qcurve" smooth="yes"/>
      <point x="690.233488372093" y="885.36"/>
      <point x="819.4" y="672.11"/>
      <point x="819.4" y="515.5" type="qcurve" smooth="yes"/>
      <point x="819.4" y="483.5" type="line" smooth="yes"/>
      <point x="819.4" y="326.97693121693123"/>
      <point x="690.233488372093" y="113.64000000000001"/>
      <point x="551.9" y="113.64000000000001" type="qcurve" smooth="yes"/>
      <point x="459.7768" y="113.64000000000001"/>
      <point x="331.1255223842068" y="219.23270896658988"/>
    </contour>
  </outline>
</glyph>
<glyph name="c" format="1">
  <advance width="927.32"/>
  <unicode hex="0063"/>
  <outline>
    <contour>
      <point x="85.0" y="483.5" type="line" smooth="yes"/>
      <point x="85.0" y="257.17962962962963"/>
      <point x="314.66" y="-30.0"/>
      <point x="515.6800000000001" y="-30.0" type="qcurve" smooth="yes"/>
      <point x="701.38" y="-30.0"/>
      <point x="892.32" y="189.475"/>
      <point x="892.32" y="326.4" type="qcurve" smooth="yes"/>
      <point x="892.32" y="331.4" type="line"/>
      <point x="743.52" y="331.4" type="line"/>
      <point x="743.52" y="326.4" type="line" smooth="yes"/>
      <point x="743.52" y="238.44"/>
      <point x="635.1219672131148" y="103.64000000000001"/>
      <point x="515.6800000000001" y="103.64000000000001" type="qcurve" smooth="yes"/>
      <point x="375.73095890410957" y="103.64000000000001"/>
      <point x="242.36" y="323.8927319587629"/>
      <point x="242.36" y="483.5" type="qcurve" smooth="yes"/>
      <point x="242.36" y="515.5" type="line" smooth="yes"/>
      <point x="242.36" y="675.11"/>
      <point x="375.73095890410957" y="895.36"/>
      <point x="515.6800000000001" y="895.36" type="qcurve" smooth="yes"/>
      <point x="635.1219672131148" y="895.36"/>
      <point x="743.52" y="760.56"/>
      <point x="743.52" y="672.6" type="qcurve" smooth="yes"/>
      <point x="743.52" y="667.6" type="line"/>
      <point x="892.32" y="667.6" type="line"/>
      <point x="892.32" y="672.6" type="line" smooth="yes"/>
      <point x="892.32" y="809.26"/>
      <point x="701.38" y="1029.0"/>
      <point x="515.6800000000001" y="1029.0" type="qcurve" smooth="yes"/>
      <point x="314.66" y="1029.0"/>
      <point x="85.0" y="741.84"/>
      <point x="85.0" y="515.5" type="qcurve" smooth="yes"/>
    </contour>
    <contour>
      <point x="515.6152" y="0.0" type="move" name="bottom"/>
    </contour>
  </outline>
</glyph>
<glyph name="d" format="1">
  <advance width="1061.76"/>
  <unicode hex="0064"/>
  <outline>
    <contour>
      <point x="85.0" y="483.5" type="line" smooth="yes"/>
      <point x="85.0" y="265.0"/>
      <point x="295.84000000000003" y="-20.0"/>
      <point x="475.26" y="-20.0" type="qcurve" smooth="yes"/>
      <point x="574.82" y="-20.0"/>
      <point x="726.2" y="68.76"/>
      <point x="763.26" y="131.6" type="qcurve"/>
      <point x="768.12" y="131.6" type="line"/>
      <point x="773.84" y="0.0" type="line"/>
      <point x="913.76" y="0.0" type="line"/>
      <point x="913.76" y="1536.0" type="line"/>
      <point x="759.44" y="1536.0" type="line"/>
      <point x="759.44" y="880.4" type="line"/>
      <point x="716.74" y="943.06"/>
      <point x="574.82" y="1019.0"/>
      <point x="475.26" y="1019.0" type="qcurve" smooth="yes"/>
      <point x="295.84000000000003" y="1019.0"/>
      <point x="85.0" y="734.105"/>
      <point x="85.0" y="515.5" type="qcurve" smooth="yes"/>
    </contour>
    <contour>
      <point x="242.36" y="483.5" type="qcurve" smooth="yes"/>
      <point x="242.36" y="515.5" type="line" smooth="yes"/>
      <point x="242.36" y="672.11"/>
      <point x="371.56" y="885.36"/>
      <point x="509.86" y="885.36" type="qcurve" smooth="yes"/>
      <point x="601.94" y="885.36"/>
      <point x="730.6" y="779.68"/>
      <point x="759.44" y="712.2" type="qcurve"/>
      <point x="759.44" y="286.8" type="line"/>
      <point x="730.6" y="219.32"/>
      <point x="601.94" y="113.64000000000001"/>
      <point x="509.86" y="113.64000000000001" type="qcurve" smooth="yes"/>
      <point x="371.56" y="113.64000000000001"/>
      <point x="242.36" y="326.97693121693123"/>
    </contour>
  </outline>
</glyph>
<glyph name="f" format="1">
  <advance width="540.96"/>
  <unicode hex="0066"/>
  <outline>
    <contour>
      <point x="183.76" y="0.0" type="line"/>
      <point x="338.08" y="0.0" type="line"/>
      <point x="338.08" y="926.36" type="line"/>
      <point x="338.08" y="946.2" type="line"/>
      <point x="338.08" y="1200.0" type="line" smooth="yes"/>
      <point x="338.08" y="1309.9"/>
      <point x="429.21669064748204" y="1419.8"/>
      <point x="512.76" y="1419.8" type="qcurve" smooth="yes"/>
      <point x="537.6800000000001" y="1419.8"/>
      <point x="586.3" y="1413.08"/>
      <point x="606.26" y="1408.9" type="qcurve"/>
      <point x="615.72" y="1540.0" type="line"/>
      <point x="588.6" y="1547.64"/>
      <point x="528.0600000000001" y="1556.0"/>
      <point x="498.64" y="1556.0" type="qcurve" smooth="yes"/>
      <point x="352.6683969465649" y="1556.0"/>
      <point x="183.76" y="1374.0"/>
      <point x="183.76" y="1200.0" type="qcurve" smooth="yes"/>
    </contour>
    <contour>
      <point x="25.0" y="873.56" type="line"/>
      <point x="550.96" y="873.56" type="line"/>
      <point x="550.96" y="999.0" type="line"/>
      <point x="278.34000000000003" y="999.0" type="line"/>
      <point x="243.14000000000001" y="999.0" type="line"/>
      <point x="25.0" y="999.0" type="line"/>
    </contour>
  </outline>
</glyph>
<glyph name="h" format="1">
  <advance width="1034.68"/>
  <unicode hex="0068"/>
  <outline>
    <contour>
      <point x="148.0" y="0.0" type="line"/>
      <point x="302.32" y="0.0" type="line"/>
      <point x="302.32" y="714.4" type="line"/>
      <point x="337.86" y="788.42"/>
      <point x="462.28" y="882.08"/>
      <point x="544.26" y="882.08" type="qcurve" smooth="yes"/>
      <point x="639.26" y="882.08"/>
      <point x="742.36" y="775.06"/>
      <point x="742.36" y="651.4" type="qcurve" smooth="yes"/>
      <point x="742.36" y="0.0" type="line"/>
      <point x="896.6800000000001" y="0.0" type="line"/>
      <point x="896.6800000000001" y="649.4" type="line" smooth="yes"/>
      <point x="896.6800000000001" y="848.8"/>
      <point x="730.1800000000001" y="1019.0"/>
      <point x="589.54" y="1019.0" type="qcurve" smooth="yes"/>
      <point x="498.24" y="1019.0"/>
      <point x="351.24" y="939.7"/>
      <point x="302.32" y="873.5" type="qcurve"/>
      <point x="302.32" y="1536.0" type="line"/>
      <point x="148.0" y="1536.0" type="line"/>
    </contour>
  </outline>
</glyph>
<glyph name="i" format="1">
  <advance width="468.32"/>
  <unicode hex="0069"/>
  <outline>
    <contour>
      <point x="157.0" y="0.0" type="line"/>
      <point x="311.32" y="0.0" type="line"/>
      <point x="311.32" y="999.0" type="line"/>
      <point x="157.0" y="999.0" type="line"/>
    </contour>
    <contour>
      <point x="140.0" y="1324.56" type="qcurve" smooth="yes"/>
      <point x="140.0" y="1282.8"/>
      <point x="188.84" y="1226.12"/>
      <point x="234.16" y="1226.12" type="qcurve" smooth="yes"/>
      <point x="279.48" y="1226.12"/>
      <point x="328.32" y="1282.8"/>
      <point x="328.32" y="1324.56" type="qcurve" smooth="yes"/>
      <point x="328.32" y="1366.32"/>
      <point x="279.48" y="1423.0"/>
      <point x="234.16" y="1423.0" type="qcurve" smooth="yes"/>
      <point x="188.84" y="1423.0"/>
      <point x="140.0" y="1366.32"/>
    </contour>
  </outline>
</glyph>
<glyph name="j" format="1">
  <advance width="468.32"/>
  <unicode hex="006A"/>
  <outline>
    <contour>
      <point x="-77.98" y="-411.08" type="line"/>
      <point x="-56.248224133185836" y="-419.6005073905183"/>
      <point x="29.313134328358206" y="-436.0"/>
      <point x="63.879999999999995" y="-436.0" type="qcurve" smooth="yes"/>
      <point x="185.45684210526315" y="-436.0"/>
      <point x="311.32" y="-270.0"/>
      <point x="311.32" y="-90.0" type="qcurve" smooth="yes"/>
      <point x="311.32" y="999.0" type="line"/>
      <point x="157.0" y="999.0" type="line"/>
      <point x="157.0" y="-130.0" type="line" smooth="yes"/>
      <point x="157.0" y="-220.176"/>
      <point x="91.56" y="-299.08"/>
      <point x="33.059999999999995" y="-299.08" type="qcurve" smooth="yes"/>
      <point x="6.179999999999996" y="-299.08"/>
      <point x="-59.84" y="-285.26"/>
      <point x="-77.98" y="-279.44" type="qcurve"/>
    </contour>
    <contour>
      <point x="140.0" y="1324.56" type="qcurve" smooth="yes"/>
      <point x="140.0" y="1282.8"/>
      <point x="188.84" y="1226.12"/>
      <point x="234.16" y="1226.12" type="qcurve" smooth="yes"/>
      <point x="279.48" y="1226.12"/>
      <point x="328.32" y="1282.8"/>
      <point x="328.32" y="1324.56" type="qcurve" smooth="yes"/>
      <point x="328.32" y="1366.32"/>
      <point x="279.48" y="1423.0"/>
      <point x="234.16" y="1423.0" type="qcurve" smooth="yes"/>
      <point x="188.84" y="1423.0"/>
      <point x="140.0" y="1366.32"/>
    </contour>
  </outline>
</glyph>
<glyph name="k" format="1">
  <advance width="930.38"/>
  <unicode hex="006B"/>
  <outline>
    <contour>
      <point x="148.0" y="0.0" type="line"/>
      <point x="302.32" y="0.0" type="line"/>
      <point x="302.32" y="353.945" type="line"/>
      <point x="900.38" y="999.0" type="line"/>
      <point x="716.27" y="999.0" type="line"/>
      <point x="302.32" y="555.82" type="line"/>
      <point x="302.32" y="1536.0" type="line"/>
      <point x="148.0" y="1536.0" type="line"/>
    </contour>
    <contour>
      <point x="758.35" y="0.0" type="line"/>
      <point x="946.38" y="0.0" type="line"/>
      <point x="470.94" y="636.075" type="line"/>
      <point x="367.69" y="517.98" type="line"/>
    </contour>
  </outline>
</glyph>
<glyph name="n" format="1">
  <advance width="1034.68"/>
  <unicode hex="006E"/>
  <outline>
    <contour>
      <point x="148.0" y="0.0" type="line"/>
      <point x="302.32" y="0.0" type="line"/>
      <point x="302.32" y="714.4" type="line"/>
      <point x="337.84096464660956" y="788.3744956981151"/>
      <point x="462.339381443299" y="882.08"/>
      <point x="544.26" y="882.08" type="qcurve" smooth="yes"/>
      <point x="639.1817391304348" y="882.08"/>
      <point x="742.36" y="775.083744680851"/>
      <point x="742.36" y="651.4" type="qcurve" smooth="yes"/>
      <point x="742.36" y="0.0" type="line"/>
      <point x="896.6800000000001" y="0.0" type="line"/>
      <point x="896.6800000000001" y="649.4" type="line" smooth="yes"/>
      <point x="896.6800000000001" y="848.7770992366412"/>
      <point x="730.1470817120623" y="1019.0"/>
      <point x="589.54" y="1019.0" type="qcurve" smooth="yes"/>
      <point x="498.20210526315793" y="1019.0"/>
      <point x="348.47040093757863" y="938.8544416173231"/>
      <point x="298.5" y="869.4" type="qcurve"/>
      <point x="293.64" y="869.4" type="line"/>
      <point x="287.92" y="999.0" type="line"/>
      <point x="148.0" y="999.0" type="line"/>
    </contour>
  </outline>
</glyph>
<glyph name="o" format="1">
  <advance width="1050.28"/>
  <unicode hex="006F"/>
  <outline>
    <contour>
      <point x="85.0" y="483.5" type="line" smooth="yes"/>
      <point x="85.0" y="257.17962962962963"/>
      <point x="324.64" y="-30.0"/>
      <point x="525.14" y="-30.0" type="qcurve" smooth="yes"/>
      <point x="725.64" y="-30.0"/>
      <point x="965.28" y="257.17962962962963"/>
      <point x="965.28" y="483.5" type="qcurve" smooth="yes"/>
      <point x="965.28" y="515.5" type="line" smooth="yes"/>
      <point x="965.28" y="741.8711764705882"/>
      <point x="725.64" y="1029.0"/>
      <point x="525.14" y="1029.0" type="qcurve" smooth="yes"/>
      <point x="324.64" y="1029.0"/>
      <point x="85.0" y="741.8711764705882"/>
      <point x="85.0" y="515.5" type="qcurve" smooth="yes"/>
    </contour>
    <contour>
      <point x="242.36" y="515.5" type="line" smooth="yes"/>
      <point x="242.36" y="675.1156382978724"/>
      <point x="385.14" y="895.36"/>
      <point x="525.14" y="895.36" type="qcurve" smooth="yes"/>
      <point x="665.14" y="895.36"/>
      <point x="807.9200000000001" y="675.1156382978724"/>
      <point x="807.9200000000001" y="515.5" type="qcurve" smooth="yes"/>
      <point x="807.9200000000001" y="483.5" type="line" smooth="yes"/>
      <point x="807.9200000000001" y="323.8927319587629"/>
      <point x="665.14" y="103.64000000000001"/>
      <point x="525.14" y="103.64000000000001" type="qcurve" smooth="yes"/>
      <point x="385.14" y="103.64000000000001"/>
      <point x="242.36" y="323.8927319587629"/>
      <point x="242.36" y="483.5" type="qcurve" smooth="yes"/>
    </contour>
  </outline>
</glyph>
<glyph name="p" format="1">
  <advance width="1061.76"/>
  <unicode hex="0070"/>
  <outline>
    <contour>
      <point x="148.0" y="-416.0" type="line"/>
      <point x="302.32" y="-416.0" type="line"/>
      <point x="302.32" y="118.6" type="line"/>
      <point x="345.02" y="55.94"/>
      <point x="486.94" y="-20.0"/>
      <point x="586.5" y="-20.0" type="qcurve" smooth="yes"/>
      <point x="765.9200000000001" y="-20.0"/>
      <point x="976.76" y="265.0"/>
      <point x="976.76" y="483.5" type="qcurve" smooth="yes"/>
      <point x="976.76" y="515.5" type="line" smooth="yes"/>
      <point x="976.76" y="734.105"/>
      <point x="765.9200000000001" y="1019.0"/>
      <point x="586.5" y="1019.0" type="qcurve" smooth="yes"/>
      <point x="486.94" y="1019.0"/>
      <point x="335.56" y="930.24"/>
      <point x="298.5" y="867.4" type="qcurve"/>
      <point x="293.64" y="867.4" type="line"/>
      <point x="287.92" y="999.0" type="line"/>
      <point x="148.0" y="999.0" type="line"/>
    </contour>
    <contour>
      <point x="302.32" y="286.8" type="qcurve"/>
      <point x="302.32" y="712.2" type="line"/>
      <point x="331.16" y="779.68"/>
      <point x="459.82" y="885.36"/>
      <point x="551.9" y="885.36" type="qcurve" smooth="yes"/>
      <point x="690.2" y="885.36"/>
      <point x="819.4" y="672.11"/>
      <point x="819.4" y="515.5" type="qcurve" smooth="yes"/>
      <point x="819.4" y="483.5" type="line" smooth="yes"/>
      <point x="819.4" y="326.97693121693123"/>
      <point x="690.2" y="113.64000000000001"/>
      <point x="551.9" y="113.64000000000001" type="qcurve" smooth="yes"/>
      <point x="459.82" y="113.64000000000001"/>
      <point x="331.16" y="219.32"/>
    </contour>
  </outline>
</glyph>
<glyph name="q" format="1">
  <advance width="1061.76"/>
  <unicode hex="0071"/>
  <outline>
    <contour>
      <point x="85.0" y="483.5" type="line" smooth="yes"/>
      <point x="85.0" y="265.0"/>
      <point x="295.84000000000003" y="-20.0"/>
      <point x="475.26" y="-20.0" type="qcurve" smooth="yes"/>
      <point x="574.82" y="-20.0"/>
      <point x="716.74" y="55.94"/>
      <point x="759.44" y="118.6" type="qcurve"/>
      <point x="759.44" y="-416.0" type="line"/>
      <point x="913.76" y="-416.0" type="line"/>
      <point x="913.76" y="999.0" type="line"/>
      <point x="773.84" y="999.0" type="line"/>
      <point x="768.12" y="867.4" type="line"/>
      <point x="763.26" y="867.4" type="line"/>
      <point x="726.2" y="930.24"/>
      <point x="574.82" y="1019.0"/>
      <point x="475.26" y="1019.0" type="qcurve" smooth="yes"/>
      <point x="295.84000000000003" y="1019.0"/>
      <point x="85.0" y="734.105"/>
      <point x="85.0" y="515.5" type="qcurve" smooth="yes"/>
    </contour>
    <contour>
      <point x="242.36" y="483.5" type="qcurve" smooth="yes"/>
      <point x="242.36" y="515.5" type="line" smooth="yes"/>
      <point x="242.36" y="672.11"/>
      <point x="371.56" y="885.36"/>
      <point x="509.86" y="885.36" type="qcurve" smooth="yes"/>
      <point x="601.94" y="885.36"/>
      <point x="730.6" y="779.68"/>
      <point x="759.44" y="712.2" type="qcurve"/>
      <point x="759.44" y="286.8" type="line"/>
      <point x="730.6" y="219.32"/>
      <point x="601.94" y="113.64000000000001"/>
      <point x="509.86" y="113.64000000000001" type="qcurve" smooth="yes"/>
      <point x="371.56" y="113.64000000000001"/>
      <point x="242.36" y="326.97693121693123"/>
    </contour>
  </outline>
</glyph>
<glyph name="t" format="1">
  <advance width="592.04"/>
  <unicode hex="0074"/>
  <outline>
    <contour>
      <point x="0.0" y="873.56" type="line"/>
      <point x="542.04" y="873.56" type="line"/>
      <point x="542.04" y="999.0" type="line"/>
      <point x="0.0" y="999.0" type="line"/>
    </contour>
    <contour>
      <point x="175.76" y="260.0" type="line" smooth="yes"/>
      <point x="175.76" y="110.0"/>
      <point x="298.42" y="-30.0"/>
      <point x="402.2" y="-30.0" type="qcurve" smooth="yes"/>
      <point x="445.3" y="-30.0"/>
      <point x="517.4200000000001" y="-13.08"/>
      <point x="540.24" y="-1.7999999999999994" type="qcurve"/>
      <point x="540.24" y="131.84" type="line"/>
      <point x="515.84" y="122.02000000000001"/>
      <point x="467.21555555555557" y="110.2"/>
      <point x="442.06" y="110.2" type="qcurve" smooth="yes"/>
      <point x="384.1126315789474" y="110.2"/>
      <point x="330.08" y="179.38"/>
      <point x="330.08" y="260.0" type="qcurve" smooth="yes"/>
      <point x="330.08" y="1312.0" type="line"/>
      <point x="175.76" y="1312.0" type="line"/>
      <point x="175.76" y="949.48" type="line"/>
      <point x="175.76" y="923.08" type="line"/>
    </contour>
  </outline>
</glyph>
<glyph name="u" format="1">
  <advance width="1034.68"/>
  <unicode hex="0075"/>
  <outline>
    <contour>
      <point x="138.0" y="349.6" type="line" smooth="yes"/>
      <point x="138.0" y="150.2"/>
      <point x="304.5" y="-20.0"/>
      <point x="445.14" y="-20.0" type="qcurve" smooth="yes"/>
      <point x="536.44" y="-20.0"/>
      <point x="686.26" y="60.120000000000005"/>
      <point x="736.1800000000001" y="129.6" type="qcurve"/>
      <point x="741.04" y="129.6" type="line"/>
      <point x="746.76" y="0.0" type="line"/>
      <point x="886.6800000000001" y="0.0" type="line"/>
      <point x="886.6800000000001" y="999.0" type="line"/>
      <point x="732.36" y="999.0" type="line"/>
      <point x="732.36" y="284.6" type="line"/>
      <point x="696.82" y="210.58"/>
      <point x="572.4" y="116.92"/>
      <point x="490.42" y="116.92" type="qcurve" smooth="yes"/>
      <point x="395.42" y="116.92"/>
      <point x="292.32" y="223.94"/>
      <point x="292.32" y="347.6" type="qcurve" smooth="yes"/>
      <point x="292.32" y="999.0" type="line"/>
      <point x="138.0" y="999.0" type="line"/>
    </contour>
  </outline>
</glyph>
<glyph name="v" format="1">
  <advance width="864.12"/>
  <unicode hex="0076"/>
  <outline>
    <contour>
      <point x="0.0" y="999.0" type="line"/>
      <point x="370.96000000000004" y="0.0" type="line"/>
      <point x="493.16" y="0.0" type="line"/>
      <point x="864.12" y="999.0" type="line"/>
      <point x="718.0" y="999.0" type="line"/>
      <point x="477.41" y="331.4" type="line" smooth="yes"/>
      <point x="463.2" y="291.93"/>
      <point x="442.37" y="211.4"/>
      <point x="436.88" y="171.4" type="qcurve"/>
      <point x="431.24" y="171.4" type="line"/>
      <point x="425.75" y="211.4"/>
      <point x="404.92" y="291.93"/>
      <point x="390.71000000000004" y="331.4" type="qcurve" smooth="yes"/>
      <point x="150.12" y="999.0" type="line"/>
    </contour>
  </outline>
</glyph>
<glyph name="x" format="1">
  <advance width="896.64"/>
  <unicode hex="0078"/>
  <outline>
    <contour>
      <point x="20.0" y="0.0" type="line"/>
      <point x="189.98000000000002" y="0.0" type="line"/>
      <point x="492.82" y="462.9" type="line"/>
      <point x="503.88" y="462.9" type="line"/>
      <point x="857.54" y="999.0" type="line"/>
      <point x="687.5600000000001" y="999.0" type="line"/>
      <point x="402.02" y="550.1" type="line"/>
      <point x="390.96000000000004" y="550.1" type="line"/>
    </contour>
    <contour>
      <point x="39.1" y="999.0" type="line"/>
      <point x="392.76" y="462.9" type="line"/>
      <point x="401.24" y="462.9" type="line"/>
      <point x="703.84" y="0.0" type="line"/>
      <point x="876.64" y="0.0" type="line"/>
      <point x="505.68" y="550.1" type="line"/>
      <point x="497.2" y="550.1" type="line"/>
      <point x="211.9" y="999.0" type="line"/>
    </contour>
  </outline>
</glyph>
<glyph name="y" format="1">
  <advance width="899.52"/>
  <unicode hex="0079"/>
  <outline>
    <contour>
      <point x="73.4" y="-416.0" type="line"/>
      <point x="99.24000000000001" y="-425.82"/>
      <point x="155.48" y="-436.0"/>
      <point x="192.48" y="-436.0" type="qcurve" smooth="yes"/>
      <point x="302.58" y="-436.0"/>
      <point x="444.78404214475466" y="-279.3445986009081"/>
      <point x="491.90000000000003" y="-140.0" type="qcurve" smooth="yes"/>
      <point x="897.12" y="999.0" type="line"/>
      <point x="751.0" y="999.0" type="line"/>
      <point x="518.53" y="331.4" type="line" smooth="yes"/>
      <point x="504.9" y="291.93"/>
      <point x="483.49" y="211.4"/>
      <point x="478.0" y="171.4" type="qcurve"/>
      <point x="472.36" y="171.4" type="line"/>
      <point x="466.87" y="211.4"/>
      <point x="446.04" y="291.93"/>
      <point x="431.83" y="331.4" type="qcurve" smooth="yes"/>
      <point x="188.92" y="999.0" type="line"/>
      <point x="38.8" y="999.0" type="line"/>
      <point x="406.28000000000003" y="8.200000000000001" type="line"/>
      <point x="370.04" y="-100.0" type="line" smooth="yes"/>
      <point x="331.83365739404525" y="-210.16216272704585"/>
      <point x="251.7" y="-295.8"/>
      <point x="185.24" y="-295.8" type="qcurve" smooth="yes"/>
      <point x="157.88" y="-295.8"/>
      <point x="97.9" y="-285.44"/>
      <point x="73.4" y="-277.44" type="qcurve"/>
    </contour>
    <contour>
      <point x="458.004" y="999.0" type="move" name="top"/>
    </contour>
  </outline>
</glyph>
<glyph name="braceleft" format="1">
  <advance width="668.8"/>
  <unicode hex="007B"/>
  <outline>
    <contour>
      <point x="621.16" y="-312.0" type="qcurve"/>
      <point x="621.16" y="-183.28" type="line"/>
      <point x="485.4" y="-183.28"/>
      <point x="351.44" y="-15.819999999999993"/>
      <point x="381.88" y="115.8" type="qcurve" smooth="yes"/>
      <point x="430.8" y="334.0" type="line" smooth="yes"/>
      <point x="449.9" y="418.18"/>
      <point x="377.72" y="546.2"/>
      <point x="279.18" y="574.0" type="qcurve"/>
      <point x="377.72" y="601.8"/>
      <point x="449.9" y="729.82"/>
      <point x="430.8" y="814.0" type="qcurve" smooth="yes"/>
      <point x="381.88" y="1032.2" type="line" smooth="yes"/>
      <point x="351.44" y="1163.82"/>
      <point x="485.4" y="1331.28"/>
      <point x="621.16" y="1331.28" type="qcurve"/>
      <point x="621.16" y="1460.0" type="line"/>
      <point x="421.62" y="1460.0"/>
      <point x="190.38" y="1193.68"/>
      <point x="227.08" y="1032.2" type="qcurve" smooth="yes"/>
      <point x="276.0" y="814.0" type="line" smooth="yes"/>
      <point x="301.36" y="702.86"/>
      <point x="180.5" y="632.8"/>
      <point x="73.53999999999999" y="632.8" type="qcurve"/>
      <point x="73.53999999999999" y="515.2" type="line"/>
      <point x="180.5" y="515.2"/>
      <point x="301.36" y="445.14"/>
      <point x="276.0" y="334.0" type="qcurve" smooth="yes"/>
      <point x="227.08" y="115.8" type="line" smooth="yes"/>
      <point x="190.38" y="-45.67999999999999"/>
      <point x="421.62" y="-312.0"/>
    </contour>
  </outline>
</glyph>
<glyph name="braceright" format="1">
  <advance width="668.8"/>
  <unicode hex="007D"/>
  <outline>
    <contour>
      <point x="47.63999999999999" y="-312.0" type="line"/>
      <point x="247.18" y="-312.0"/>
      <point x="478.42" y="-45.67999999999999"/>
      <point x="441.72" y="115.8" type="qcurve" smooth="yes"/>
      <point x="392.8" y="334.0" type="line" smooth="yes"/>
      <point x="367.44" y="445.14"/>
      <point x="488.3" y="515.2"/>
      <point x="595.26" y="515.2" type="qcurve"/>
      <point x="595.26" y="632.8" type="line"/>
      <point x="488.3" y="632.8"/>
      <point x="367.44" y="702.86"/>
      <point x="392.8" y="814.0" type="qcurve" smooth="yes"/>
      <point x="441.72" y="1032.2" type="line" smooth="yes"/>
      <point x="478.42" y="1193.68"/>
      <point x="247.18" y="1460.0"/>
      <point x="47.63999999999999" y="1460.0" type="qcurve"/>
      <point x="47.63999999999999" y="1331.28" type="line"/>
      <point x="183.4" y="1331.28"/>
      <point x="317.36" y="1163.82"/>
      <point x="286.92" y="1032.2" type="qcurve" smooth="yes"/>
      <point x="238.0" y="814.0" type="line" smooth="yes"/>
      <point x="218.9" y="729.82"/>
      <point x="291.08" y="601.8"/>
      <point x="389.62" y="574.0" type="qcurve"/>
      <point x="291.08" y="546.2"/>
      <point x="218.9" y="418.18"/>
      <point x="238.0" y="334.0" type="qcurve" smooth="yes"/>
      <point x="286.92" y="115.8" type="line" smooth="yes"/>
      <point x="317.36" y="-15.819999999999993"/>
      <point x="183.4" y="-183.28"/>
      <point x="47.63999999999999" y="-183.28" type="qcurve"/>
    </contour>
  </outline>
</glyph>
<glyph name="asciitilde" format="1">
  <advance width="1170.0"/>
  <unicode hex="007E"/>
  <outline>
    <contour>
      <point x="102.73999999999998" y="436.0" type="qcurve"/>
      <point x="243.94" y="436.0" type="line"/>
      <point x="243.94" y="524.9072164948453"/>
      <point x="299.44" y="651.6"/>
      <point x="367.86" y="651.6" type="qcurve" smooth="yes"/>
      <point x="447.36" y="651.6"/>
      <point x="678.9" y="424.0"/>
      <point x="805.74" y="424.0" type="qcurve" smooth="yes"/>
      <point x="931.98" y="424.0"/>
      <point x="1067.26" y="640.0"/>
      <point x="1067.26" y="788.0" type="qcurve"/>
      <point x="926.0600000000001" y="788.0" type="line"/>
      <point x="926.0600000000001" y="699.0927835051547"/>
      <point x="870.5600000000001" y="572.4"/>
      <point x="802.14" y="572.4" type="qcurve" smooth="yes"/>
      <point x="722.64" y="572.4"/>
      <point x="491.1" y="800.0"/>
      <point x="364.26" y="800.0" type="qcurve" smooth="yes"/>
      <point x="238.01999999999998" y="800.0"/>
      <point x="102.73999999999998" y="584.0"/>
    </contour>
  </outline>
</glyph>
<glyph name="exclamdown" format="1">
  <advance width="585.44"/>
  <unicode hex="00A1"/>
  <outline>
    <contour>
      <point x="212.52" y="-280.0" type="line"/>
      <point x="372.92" y="-280.0" type="line"/>
      <point x="360.32" y="771.4" type="line"/>
      <point x="225.12" y="771.4" type="line"/>
    </contour>
    <contour>
      <point x="186.0" y="1086.92" type="qcurve" smooth="yes"/>
      <point x="186.0" y="1041.16"/>
      <point x="241.12" y="975.84"/>
      <point x="292.72" y="975.84" type="qcurve" smooth="yes"/>
      <point x="344.32" y="975.84"/>
      <point x="399.44" y="1041.16"/>
      <point x="399.44" y="1086.92" type="qcurve" smooth="yes"/>
      <point x="399.44" y="1132.68"/>
      <point x="344.32" y="1198.0"/>
      <point x="292.72" y="1198.0" type="qcurve" smooth="yes"/>
      <point x="241.12" y="1198.0"/>
      <point x="186.0" y="1132.68"/>
    </contour>
  </outline>
</glyph>
<glyph name="cent" format="1">
  <advance width="949.0"/>
  <unicode hex="00A2"/>
  <outline>
    <contour>
      <point x="85.0" y="520.0" type="line" smooth="yes"/>
      <point x="85.0" y="286.26074074074074"/>
      <point x="320.03094650205765" y="-10.0"/>
      <point x="526.04" y="-10.0" type="qcurve" smooth="yes"/>
      <point x="716.3857943925234" y="-10.0"/>
      <point x="914.0" y="217.0"/>
      <point x="914.0" y="357.0" type="qcurve"/>
      <point x="914.0" y="362.0" type="line"/>
      <point x="764.24" y="362.0" type="line"/>
      <point x="764.24" y="357.0" type="line"/>
      <point x="764.24" y="264.8"/>
      <point x="650.7403225806452" y="123.64000000000001"/>
      <point x="526.04" y="123.64000000000001" type="qcurve" smooth="yes"/>
      <point x="380.4816216216216" y="123.64000000000001"/>
      <point x="242.36" y="353.38865979381444"/>
      <point x="242.36" y="520.0" type="qcurve" smooth="yes"/>
      <point x="242.36" y="552.0" type="line" smooth="yes"/>
      <point x="242.36" y="718.6113402061856"/>
      <point x="380.4816216216216" y="948.36"/>
      <point x="526.04" y="948.36" type="qcurve" smooth="yes"/>
      <point x="650.7403225806452" y="948.36"/>
      <point x="764.24" y="807.2"/>
      <point x="764.24" y="715.0" type="qcurve" smooth="yes"/>
      <point x="764.24" y="710.0" type="line"/>
      <point x="914.0" y="710.0" type="line"/>
      <point x="914.0" y="715.0" type="line" smooth="yes"/>
      <point x="914.0" y="855.0"/>
      <point x="716.3857943925234" y="1082.0"/>
      <point x="526.04" y="1082.0" type="qcurve" smooth="yes"/>
      <point x="320.03094650205765" y="1082.0"/>
      <point x="85.0" y="785.7392592592593"/>
      <point x="85.0" y="552.0" type="qcurve" smooth="yes"/>
    </contour>
    <contour>
      <point x="457.4" y="-256.0" type="line"/>
      <point x="584.36" y="-256.0" type="line"/>
      <point x="584.36" y="48.6" type="line"/>
      <point x="579.98" y="54.6" type="line"/>
      <point x="579.98" y="541.0" type="line"/>
      <point x="461.78000000000003" y="541.0" type="line"/>
      <point x="461.78000000000003" y="54.6" type="line"/>
      <point x="457.4" y="48.6" type="line"/>
    </contour>
    <contour>
      <point x="461.78000000000003" y="541.0" type="line"/>
      <point x="579.98" y="541.0" type="line"/>
      <point x="579.98" y="1027.4" type="line"/>
      <point x="584.36" y="1033.4" type="line"/>
      <point x="584.36" y="1328.0" type="line"/>
      <point x="457.4" y="1328.0" type="line"/>
      <point x="457.4" y="1033.4" type="line"/>
      <point x="461.78000000000003" y="1027.4" type="line"/>
    </contour>
  </outline>
</glyph>
<glyph name="currency" format="1">
  <advance width="1402.76"/>
  <unicode hex="00A4"/>
  <outline>
    <contour>
      <point x="168.26" y="610.0" type="qcurve" smooth="yes"/>
      <point x="168.26" y="355.0"/>
      <point x="470.9246956521739" y="0.0"/>
      <point x="701.38" y="0.0" type="qcurve" smooth="yes"/>
      <point x="931.8353043478261" y="0.0"/>
      <point x="1234.5" y="355.0"/>
      <point x="1234.5" y="610.0" type="qcurve" smooth="yes"/>
      <point x="1234.5" y="865.0"/>
      <point x="931.8353043478261" y="1220.0"/>
      <point x="701.38" y="1220.0" type="qcurve" smooth="yes"/>
      <point x="470.9246956521739" y="1220.0"/>
      <point x="168.26" y="865.0"/>
    </contour>
    <contour>
      <point x="318.02" y="610.0" type="qcurve" smooth="yes"/>
      <point x="318.02" y="808.336170212766"/>
      <point x="533.08" y="1079.8"/>
      <point x="701.38" y="1079.8" type="qcurve" smooth="yes"/>
      <point x="869.6800000000001" y="1079.8"/>
      <point x="1084.74" y="808.336170212766"/>
      <point x="1084.74" y="610.0" type="qcurve" smooth="yes"/>
      <point x="1084.74" y="411.663829787234"/>
      <point x="869.6800000000001" y="140.20000000000002"/>
      <point x="701.38" y="140.20000000000002" type="qcurve" smooth="yes"/>
      <point x="533.08" y="140.20000000000002"/>
      <point x="318.02" y="411.663829787234"/>
    </contour>
    <contour>
      <point x="120.64" y="1135.38" type="line"/>
      <point x="309.82" y="937.38" type="line"/>
      <point x="416.42" y="1046.2" type="line"/>
      <point x="227.24" y="1244.2" type="line"/>
    </contour>
    <contour>
      <point x="986.34" y="1046.2" type="line"/>
      <point x="1092.94" y="937.38" type="line"/>
      <point x="1282.1200000000001" y="1135.38" type="line"/>
      <point x="1175.52" y="1244.2" type="line"/>
    </contour>
    <contour>
      <point x="986.34" y="173.8" type="line"/>
      <point x="1175.52" y="-24.2" type="line"/>
      <point x="1282.1200000000001" y="84.62" type="line"/>
      <point x="1092.94" y="282.62" type="line"/>
    </contour>
    <contour>
      <point x="120.64" y="84.62" type="line"/>
      <point x="227.24" y="-24.2" type="line"/>
      <point x="416.42" y="173.8" type="line"/>
      <point x="309.82" y="282.62" type="line"/>
    </contour>
  </outline>
</glyph>
<glyph name="yen" format="1">
  <advance width="1059.14"/>
  <unicode hex="00A5"/>
  <outline>
    <contour>
      <point x="78.02" y="277.94" type="line"/>
      <point x="981.3" y="277.94" type="line"/>
      <point x="981.3" y="405.02" type="line"/>
      <point x="78.02" y="405.02" type="line"/>
    </contour>
    <contour>
      <point x="78.02" y="584.34" type="line"/>
      <point x="981.3" y="584.34" type="line"/>
      <point x="981.3" y="711.42" type="line"/>
      <point x="78.02" y="711.42" type="line"/>
    </contour>
    <contour>
      <point x="451.92" y="0.0" type="line"/>
      <point x="607.22" y="0.0" type="line"/>
      <point x="607.22" y="581.64" type="line"/>
      <point x="1016.1" y="1456.0" type="line"/>
      <point x="856.6" y="1456.0" type="line"/>
      <point x="584.2" y="866.84" type="line" smooth="yes"/>
      <point x="569.86" y="835.2"/>
      <point x="545.28" y="776.84"/>
      <point x="534.06" y="746.84" type="qcurve"/>
      <point x="528.42" y="746.84" type="line"/>
      <point x="517.2" y="776.84"/>
      <point x="492.62" y="835.2"/>
      <point x="478.28" y="866.84" type="qcurve" smooth="yes"/>
      <point x="207.42" y="1456.0" type="line"/>
      <point x="43.03999999999999" y="1456.0" type="line"/>
      <point x="451.92" y="581.64" type="line"/>
    </contour>
  </outline>
</glyph>
<glyph name="section" format="1">
  <advance width="1130.28"/>
  <unicode hex="00A7"/>
  <outline>
    <contour>
      <point x="127.26" y="572.4" type="qcurve" smooth="yes"/>
      <point x="127.26" y="422.52"/>
      <point x="303.34000000000003" y="260.54"/>
      <point x="505.24" y="199.7" type="qcurve" smooth="yes"/>
      <point x="714.5479217006874" y="139.53765567591898"/>
      <point x="849.44" y="20.8"/>
      <point x="849.44" y="-75.6" type="qcurve" smooth="yes"/>
      <point x="849.44" y="-183.07999999999998"/>
      <point x="694.9391596638656" y="-314.0"/>
      <point x="554.94" y="-314.0" type="qcurve" smooth="yes"/>
      <point x="414.11639344262295" y="-314.0"/>
      <point x="252.8" y="-185.0"/>
      <point x="252.8" y="-56.0" type="qcurve" smooth="yes"/>
      <point x="252.8" y="-44.0" type="line"/>
      <point x="100.0" y="-44.0" type="line"/>
      <point x="100.0" y="-56.0" type="line" smooth="yes"/>
      <point x="100.0" y="-236.0"/>
      <point x="348.54" y="-446.0"/>
      <point x="554.94" y="-446.0" type="qcurve" smooth="yes"/>
      <point x="760.34" y="-446.0"/>
      <point x="1000.72" y="-237.98"/>
      <point x="1000.72" y="-75.6" type="qcurve" smooth="yes"/>
      <point x="1000.72" y="86.96000000000001"/>
      <point x="816.46" y="266.88"/>
      <point x="613.1" y="325.8" type="qcurve" smooth="yes"/>
      <point x="412.67931597614086" y="384.1248622808012"/>
      <point x="278.54" y="488.14"/>
      <point x="278.54" y="572.4" type="qcurve" smooth="yes"/>
      <point x="278.54" y="674.02"/>
      <point x="408.21500000000003" y="787.0"/>
      <point x="545.3" y="787.0" type="qcurve"/>
      <point x="384.1" y="887.4" type="line"/>
      <point x="260.76" y="851.0"/>
      <point x="127.26" y="688.68"/>
    </contour>
    <contour>
      <point x="156.82" y="1128.6" type="qcurve" smooth="yes"/>
      <point x="156.82" y="975.84"/>
      <point x="328.28000000000003" y="805.4"/>
      <point x="534.98" y="744.2" type="qcurve" smooth="yes"/>
      <point x="739.3244832536489" y="685.8408568510375"/>
      <point x="879.0" y="572.86"/>
      <point x="879.0" y="480.6" type="qcurve" smooth="yes"/>
      <point x="879.0" y="377.98"/>
      <point x="726.6591596638656" y="253.0"/>
      <point x="584.5" y="253.0" type="qcurve"/>
      <point x="796.8" y="160.8" type="line"/>
      <point x="903.62" y="202.56"/>
      <point x="1030.28" y="370.86"/>
      <point x="1030.28" y="480.6" type="qcurve" smooth="yes"/>
      <point x="1030.28" y="638.48"/>
      <point x="841.22" y="812.46"/>
      <point x="642.66" y="870.3" type="qcurve" smooth="yes"/>
      <point x="437.02784929129353" y="929.7358404358994"/>
      <point x="308.1" y="1040.38"/>
      <point x="308.1" y="1128.6" type="qcurve" smooth="yes"/>
      <point x="308.1" y="1235.44"/>
      <point x="439.7825" y="1354.0"/>
      <point x="575.04" y="1354.0" type="qcurve" smooth="yes"/>
      <point x="710.3385650224216" y="1354.0"/>
      <point x="851.26" y="1215.1"/>
      <point x="851.26" y="1101.0" type="qcurve" smooth="yes"/>
      <point x="851.26" y="1090.0" type="line"/>
      <point x="1004.0600000000001" y="1090.0" type="line"/>
      <point x="1004.0600000000001" y="1101.0" type="line" smooth="yes"/>
      <point x="1004.0600000000001" y="1262.0"/>
      <point x="773.72" y="1486.0"/>
      <point x="575.04" y="1486.0" type="qcurve" smooth="yes"/>
      <point x="376.18" y="1486.0"/>
      <point x="156.82" y="1281.98"/>
    </contour>
  </outline>
</glyph>
<glyph name="dieresis" format="1">
  <advance width="1004.5600000000001"/>
  <unicode hex="00A8"/>
  <outline>
    <contour>
      <point x="214.8" y="1257.0" type="qcurve" smooth="yes"/>
      <point x="214.8" y="1213.06"/>
      <point x="265.12" y="1153.2"/>
      <point x="310.4" y="1153.2" type="qcurve" smooth="yes"/>
      <point x="355.68" y="1153.2"/>
      <point x="406.0" y="1213.06"/>
      <point x="406.0" y="1257.0" type="qcurve" smooth="yes"/>
      <point x="406.0" y="1300.94"/>
      <point x="355.68" y="1360.8"/>
      <point x="310.4" y="1360.8" type="qcurve" smooth="yes"/>
      <point x="265.12" y="1360.8"/>
      <point x="214.8" y="1300.94"/>
    </contour>
    <contour>
      <point x="598.5600000000001" y="1257.0" type="qcurve" smooth="yes"/>
      <point x="598.5600000000001" y="1213.06"/>
      <point x="648.88" y="1153.2"/>
      <point x="694.16" y="1153.2" type="qcurve" smooth="yes"/>
      <point x="739.44" y="1153.2"/>
      <point x="789.76" y="1213.06"/>
      <point x="789.76" y="1257.0" type="qcurve" smooth="yes"/>
      <point x="789.76" y="1300.94"/>
      <point x="739.44" y="1360.8"/>
      <point x="694.16" y="1360.8" type="qcurve" smooth="yes"/>
      <point x="648.88" y="1360.8"/>
      <point x="598.5600000000001" y="1300.94"/>
    </contour>
  </outline>
</glyph>
<glyph name="ordfeminine" format="1">
  <advance width="829.46"/>
  <unicode hex="00AA"/>
  <outline>
    <contour>
      <point x="66.0" y="866.4" type="qcurve" smooth="yes"/>
      <point x="66.0" y="742.2"/>
      <point x="216.8" y="611.0"/>
      <point x="324.9" y="611.0" type="qcurve" smooth="yes"/>
      <point x="421.54" y="611.0"/>
      <point x="543.1055905230883" y="691.9168171660218"/>
      <point x="571.08" y="743.6" type="qcurve"/>
      <point x="574.32" y="711.7"/>
      <point x="590.94" y="646.54"/>
      <point x="601.64" y="627.0" type="qcurve"/>
      <point x="738.02" y="627.0" type="line"/>
      <point x="738.02" y="639.0" type="line"/>
      <point x="724.74" y="674.0"/>
      <point x="709.46" y="764.0"/>
      <point x="709.46" y="815.0" type="qcurve" smooth="yes"/>
      <point x="709.46" y="1192.0" type="line" smooth="yes"/>
      <point x="709.46" y="1333.0"/>
      <point x="554.78" y="1476.0"/>
      <point x="416.38" y="1476.0" type="qcurve" smooth="yes"/>
      <point x="277.98" y="1476.0"/>
      <point x="111.84" y="1325.62"/>
      <point x="111.84" y="1222.0" type="qcurve" smooth="yes"/>
      <point x="111.84" y="1216.0" type="line"/>
      <point x="253.04" y="1216.0" type="line"/>
      <point x="253.04" y="1222.0" type="line" smooth="yes"/>
      <point x="253.04" y="1275.48"/>
      <point x="327.7574045801527" y="1356.2"/>
      <point x="412.56" y="1356.2" type="qcurve" smooth="yes"/>
      <point x="497.145625" y="1356.2"/>
      <point x="568.26" y="1264.2"/>
      <point x="568.26" y="1192.0" type="qcurve" smooth="yes"/>
      <point x="568.26" y="1127.8" type="line"/>
      <point x="397.28000000000003" y="1127.8" type="line" smooth="yes"/>
      <point x="253.14" y="1127.8"/>
      <point x="66.0" y="990.78"/>
    </contour>
    <contour>
      <point x="207.2" y="874.4" type="qcurve" smooth="yes"/>
      <point x="207.2" y="940.26"/>
      <point x="311.1773652694611" y="1019.2"/>
      <point x="412.56" y="1019.2" type="qcurve" smooth="yes"/>
      <point x="568.26" y="1019.2" type="line"/>
      <point x="568.26" y="905.8" type="line"/>
      <point x="568.26" y="842.5600000000001"/>
      <point x="439.24" y="730.8"/>
      <point x="360.08000000000004" y="730.8" type="qcurve" smooth="yes"/>
      <point x="281.82" y="730.8"/>
      <point x="207.2" y="806.46"/>
    </contour>
  </outline>
</glyph>
<glyph name="registered" format="1">
  <advance width="1623.2"/>
  <unicode hex="00AE"/>
  <outline>
    <contour>
      <point x="94.0" y="698.0" type="qcurve" smooth="yes"/>
      <point x="94.0" y="364.0"/>
      <point x="519.66" y="-82.0"/>
      <point x="811.6" y="-82.0" type="qcurve" smooth="yes"/>
      <point x="1103.54" y="-82.0"/>
      <point x="1529.2" y="364.0"/>
      <point x="1529.2" y="698.0" type="qcurve" smooth="yes"/>
      <point x="1529.2" y="1032.0"/>
      <point x="1103.54" y="1478.0"/>
      <point x="811.6" y="1478.0" type="qcurve" smooth="yes"/>
      <point x="519.66" y="1478.0"/>
      <point x="94.0" y="1032.0"/>
    </contour>
    <contour>
      <point x="223.52" y="698.0" type="qcurve" smooth="yes"/>
      <point x="223.52" y="969.2"/>
      <point x="560.36" y="1349.28"/>
      <point x="811.6" y="1349.28" type="qcurve" smooth="yes"/>
      <point x="1062.66" y="1349.28"/>
      <point x="1399.68" y="969.2"/>
      <point x="1399.68" y="698.0" type="qcurve" smooth="yes"/>
      <point x="1399.68" y="426.8"/>
      <point x="1062.84" y="46.720000000000006"/>
      <point x="811.6" y="46.720000000000006" type="qcurve" smooth="yes"/>
      <point x="560.36" y="46.720000000000006"/>
      <point x="223.52" y="426.8"/>
    </contour>
    <contour>
      <point x="551.54" y="284.0" type="line"/>
      <point x="684.1" y="284.0" type="line"/>
      <point x="684.1" y="592.0" type="line"/>
      <point x="816.64" y="592.0" type="line" smooth="yes"/>
      <point x="940.6284647302905" y="592.0"/>
      <point x="1101.74" y="742.0"/>
      <point x="1101.74" y="867.0" type="qcurve" smooth="yes"/>
      <point x="1101.74" y="992.0"/>
      <point x="940.6284647302905" y="1132.0"/>
      <point x="816.64" y="1132.0" type="qcurve" smooth="yes"/>
      <point x="551.54" y="1132.0" type="line"/>
    </contour>
    <contour>
      <point x="684.1" y="705.6" type="line"/>
      <point x="684.1" y="1018.4" type="line"/>
      <point x="816.64" y="1018.4" type="line" smooth="yes"/>
      <point x="891.2177777777778" y="1018.4"/>
      <point x="967.66" y="939.02"/>
      <point x="967.66" y="862.0" type="qcurve" smooth="yes"/>
      <point x="967.66" y="784.98"/>
      <point x="891.2177777777778" y="705.6"/>
      <point x="816.64" y="705.6" type="qcurve" smooth="yes"/>
    </contour>
    <contour>
      <point x="1012.96" y="284.0" type="line"/>
      <point x="1160.56" y="284.0" type="line"/>
      <point x="946.64" y="649.62" type="line"/>
      <point x="806.6800000000001" y="649.62" type="line"/>
    </contour>
  </outline>
</glyph>
<glyph name="macron" format="1">
  <advance width="995.92"/>
  <unicode hex="00AF"/>
  <outline>
    <contour>
      <point x="212.0" y="1185.36" type="line"/>
      <point x="783.92" y="1185.36" type="line"/>
      <point x="783.92" y="1320.64" type="line"/>
      <point x="212.0" y="1320.64" type="line"/>
    </contour>
  </outline>
</glyph>
<glyph name="plusminus" format="1">
  <advance width="1170.0"/>
  <unicode hex="00B1"/>
  <outline>
    <contour>
      <point x="174.38" y="630.32" type="line"/>
      <point x="995.62" y="630.32" type="line"/>
      <point x="995.62" y="770.52" type="line"/>
      <point x="174.38" y="770.52" type="line"/>
    </contour>
    <contour>
      <point x="511.64" y="268.54" type="line"/>
      <point x="658.36" y="268.54" type="line"/>
      <point x="658.36" y="1160.22" type="line"/>
      <point x="511.64" y="1160.22" type="line"/>
    </contour>
    <contour>
      <point x="174.38" y="22.139999999999993" type="line"/>
      <point x="995.62" y="22.139999999999993" type="line"/>
      <point x="995.62" y="162.34" type="line"/>
      <point x="174.38" y="162.34" type="line"/>
    </contour>
  </outline>
</glyph>
<glyph name="mu.math" format="1">
  <advance width="1046.3"/>
  <unicode hex="00B5"/>
  <outline>
    <contour>
      <point x="148.0" y="-416.0" type="line"/>
      <point x="294.32" y="-416.0" type="line"/>
      <point x="294.32" y="55.06" type="line"/>
      <point x="327.82" y="18.9"/>
      <point x="426.66" y="-20.0"/>
      <point x="481.96000000000004" y="-20.0" type="qcurve" smooth="yes"/>
      <point x="564.5" y="-20.0"/>
      <point x="699.4" y="59.7"/>
      <point x="748.52" y="124.38000000000001" type="qcurve"/>
      <point x="753.56" y="124.38000000000001" type="line"/>
      <point x="759.1" y="0.0" type="line"/>
      <point x="898.3" y="0.0" type="line"/>
      <point x="898.3" y="999.0" type="line"/>
      <point x="743.98" y="999.0" type="line"/>
      <point x="743.98" y="274.52" type="line"/>
      <point x="706.82" y="203.92000000000002"/>
      <point x="582.22" y="116.92"/>
      <point x="500.9" y="116.92" type="qcurve" smooth="yes"/>
      <point x="405.48" y="116.92"/>
      <point x="302.32" y="218.9"/>
      <point x="302.32" y="336.8" type="qcurve" smooth="yes"/>
      <point x="302.32" y="999.0" type="line"/>
      <point x="148.0" y="999.0" type="line"/>
    </contour>
  </outline>
</glyph>
<glyph name="paragraph" format="1">
  <advance width="1268.6"/>
  <unicode hex="00B6"/>
  <outline>
    <contour>
      <point x="100.0" y="986.0" type="qcurve" smooth="yes"/>
      <point x="100.0" y="786.0"/>
      <point x="329.2" y="513.0"/>
      <point x="501.1" y="516.0" type="qcurve" smooth="yes"/>
      <point x="550.7" y="516.0" type="line"/>
      <point x="550.7" y="-200.0" type="line"/>
      <point x="704.5" y="-200.0" type="line"/>
      <point x="704.5" y="1291.2" type="line"/>
      <point x="870.1" y="1291.2" type="line"/>
      <point x="870.1" y="-200.0" type="line"/>
      <point x="1023.9" y="-200.0" type="line"/>
      <point x="1023.9" y="1291.2" type="line"/>
      <point x="1193.6" y="1291.2" type="line"/>
      <point x="1193.6" y="1456.0" type="line"/>
      <point x="501.1" y="1456.0" type="line" smooth="yes"/>
      <point x="329.2" y="1456.0"/>
      <point x="100.0" y="1186.0"/>
    </contour>
  </outline>
</glyph>
<glyph name="periodcentered" format="1">
  <advance width="542.56"/>
  <unicode hex="00B7"/>
  <outline>
    <contour>
      <point x="160.0" y="730.0" type="qcurve" smooth="yes"/>
      <point x="160.0" y="681.78"/>
      <point x="217.4" y="614.0"/>
      <point x="271.28" y="614.0" type="qcurve" smooth="yes"/>
      <point x="325.16" y="614.0"/>
      <point x="382.56" y="681.78"/>
      <point x="382.56" y="730.0" type="qcurve" smooth="yes"/>
      <point x="382.56" y="778.22"/>
      <point x="325.16" y="846.0"/>
      <point x="271.28" y="846.0" type="qcurve" smooth="yes"/>
      <point x="217.4" y="846.0"/>
      <point x="160.0" y="778.22"/>
    </contour>
  </outline>
</glyph>
<glyph name="cedilla" format="1">
  <advance width="1024.0"/>
  <unicode hex="00B8"/>
  <outline>
    <contour>
      <point x="465.2" y="0.0" type="line"/>
      <point x="405.2" y="-215.0" type="line"/>
      <point x="503.98" y="-215.0"/>
      <point x="588.32" y="-263.96"/>
      <point x="588.32" y="-307.2" type="qcurve" smooth="yes"/>
      <point x="588.32" y="-360.44"/>
      <point x="460.84" y="-422.4"/>
      <point x="318.06" y="-422.4" type="qcurve"/>
      <point x="324.62" y="-536.0" type="line"/>
      <point x="551.62" y="-536.0"/>
      <point x="721.92" y="-403.96"/>
      <point x="721.92" y="-307.2" type="qcurve" smooth="yes"/>
      <point x="721.92" y="-230.44"/>
      <point x="628.04" y="-142.24"/>
      <point x="536.06" y="-125.06" type="qcurve"/>
      <point x="580.0" y="0.0" type="line"/>
    </contour>
  </outline>
</glyph>
<glyph name="ordmasculine" format="1">
  <advance width="845.6800000000001"/>
  <unicode hex="00BA"/>
  <outline>
    <contour>
      <point x="60.0" y="1027.0" type="line" smooth="yes"/>
      <point x="60.0" y="840.0"/>
      <point x="257.5" y="603.0"/>
      <point x="422.84000000000003" y="603.0" type="qcurve" smooth="yes"/>
      <point x="588.1800000000001" y="603.0"/>
      <point x="785.6800000000001" y="840.0"/>
      <point x="785.6800000000001" y="1027.0" type="qcurve" smooth="yes"/>
      <point x="785.6800000000001" y="1052.0" type="line" smooth="yes"/>
      <point x="785.6800000000001" y="1239.0"/>
      <point x="588.1800000000001" y="1476.0"/>
      <point x="422.84000000000003" y="1476.0" type="qcurve" smooth="yes"/>
      <point x="257.5" y="1476.0"/>
      <point x="60.0" y="1239.0"/>
      <point x="60.0" y="1052.0" type="qcurve" smooth="yes"/>
    </contour>
    <contour>
      <point x="201.2" y="1052.0" type="line" smooth="yes"/>
      <point x="201.2" y="1177.4133333333332"/>
      <point x="313.02" y="1352.92"/>
      <point x="422.84000000000003" y="1352.92" type="qcurve" smooth="yes"/>
      <point x="532.66" y="1352.92"/>
      <point x="644.48" y="1177.4133333333332"/>
      <point x="644.48" y="1052.0" type="qcurve" smooth="yes"/>
      <point x="644.48" y="1027.0" type="line" smooth="yes"/>
      <point x="644.48" y="901.7666666666667"/>
      <point x="532.66" y="726.08"/>
      <point x="422.84000000000003" y="726.08" type="qcurve" smooth="yes"/>
      <point x="313.02" y="726.08"/>
      <point x="201.2" y="901.7666666666667"/>
      <point x="201.2" y="1027.0" type="qcurve" smooth="yes"/>
    </contour>
  </outline>
</glyph>
<glyph name="questiondown" format="1">
  <advance width="905.6"/>
  <unicode hex="00BF"/>
  <outline>
    <contour>
      <point x="113.25999999999999" y="67.0" type="qcurve" smooth="yes"/>
      <point x="113.25999999999999" y="-100.12"/>
      <point x="301.4" y="-300.0"/>
      <point x="467.88" y="-300.0" type="qcurve" smooth="yes"/>
      <point x="635.02" y="-300.0"/>
      <point x="828.32" y="-106.52"/>
      <point x="828.32" y="61.0" type="qcurve" smooth="yes"/>
      <point x="828.32" y="81.0" type="line"/>
      <point x="674.52" y="81.0" type="line"/>
      <point x="674.52" y="61.0" type="line" smooth="yes"/>
      <point x="674.52" y="-45.16"/>
      <point x="568.88" y="-158.16"/>
      <point x="467.88" y="-158.16" type="qcurve" smooth="yes"/>
      <point x="367.06" y="-158.16"/>
      <point x="267.82" y="-38.22"/>
      <point x="267.82" y="67.0" type="qcurve" smooth="yes"/>
      <point x="267.82" y="170.78"/>
      <point x="355.56" y="309.84"/>
      <point x="431.26" y="391.92" type="qcurve" smooth="yes"/>
      <point x="519.04" y="487.9"/>
      <point x="580.4" y="634.06"/>
      <point x="580.4" y="756.0" type="qcurve" smooth="yes"/>
      <point x="580.4" y="766.0" type="line"/>
      <point x="425.84" y="766.0" type="line"/>
      <point x="425.84" y="756.0" type="line" smooth="yes"/>
      <point x="425.84" y="684.92"/>
      <point x="387.18" y="551.62"/>
      <point x="309.32" y="473.0" type="qcurve" smooth="yes"/>
      <point x="238.64" y="402.52"/>
      <point x="113.25999999999999" y="203.16"/>
    </contour>
    <contour>
      <point x="388.96" y="1086.92" type="qcurve" smooth="yes"/>
      <point x="388.96" y="1041.16"/>
      <point x="444.08" y="975.84"/>
      <point x="495.68" y="975.84" type="qcurve" smooth="yes"/>
      <point x="547.28" y="975.84"/>
      <point x="602.4" y="1041.16"/>
      <point x="602.4" y="1086.92" type="qcurve" smooth="yes"/>
      <point x="602.4" y="1132.68"/>
      <point x="547.28" y="1198.0"/>
      <point x="495.68" y="1198.0" type="qcurve" smooth="yes"/>
      <point x="444.08" y="1198.0"/>
      <point x="388.96" y="1132.68"/>
    </contour>
  </outline>
</glyph>
<glyph name="Eth" format="1">
  <advance width="1243.0"/>
  <unicode hex="00D0"/>
  <outline>
    <contour>
      <point x="170.0" y="0.0" type="line"/>
      <point x="545.12" y="0.0" type="line" smooth="yes"/>
      <point x="802.32" y="0.0"/>
      <point x="1139.56" y="369.28"/>
      <point x="1139.56" y="682.0" type="qcurve" smooth="yes"/>
      <point x="1139.56" y="774.0" type="line" smooth="yes"/>
      <point x="1139.56" y="1086.72"/>
      <point x="802.32" y="1456.0"/>
      <point x="545.12" y="1456.0" type="qcurve" smooth="yes"/>
      <point x="170.0" y="1456.0" type="line"/>
    </contour>
    <contour>
      <point x="328.88" y="138.56" type="line"/>
      <point x="328.88" y="1317.44" type="line"/>
      <point x="545.12" y="1317.44" type="line" smooth="yes"/>
      <point x="743.6" y="1317.44"/>
      <point x="978.9200000000001" y="1029.0"/>
      <point x="978.9200000000001" y="774.0" type="qcurve" smooth="yes"/>
      <point x="978.9200000000001" y="682.0" type="line" smooth="yes"/>
      <point x="978.9200000000001" y="427.0"/>
      <point x="743.6" y="138.56"/>
      <point x="545.12" y="138.56" type="qcurve" smooth="yes"/>
    </contour>
    <contour>
      <point x="45.76" y="795.0" type="line"/>
      <point x="45.76" y="663.0" type="line"/>
      <point x="644.94" y="663.0" type="line"/>
      <point x="644.94" y="795.0" type="line"/>
    </contour>
  </outline>
</glyph>
<glyph name="Oslash" format="1">
  <advance width="1338.02"/>
  <unicode hex="00D8"/>
  <outline>
    <contour>
      <point x="83.68" y="-80.0" type="line"/>
      <point x="248.16" y="-80.0" type="line"/>
      <point x="390.08" y="150.0" type="line"/>
      <point x="382.48" y="150.0" type="line"/>
      <point x="741.22" y="726.0" type="line"/>
      <point x="596.62" y="726.0" type="line"/>
      <point x="299.64" y="250.0" type="line"/>
      <point x="292.4" y="250.0" type="line"/>
    </contour>
    <contour>
      <point x="596.62" y="726.0" type="line"/>
      <point x="741.22" y="726.0" type="line"/>
      <point x="1038.38" y="1202.0" type="line"/>
      <point x="1045.8" y="1202.0" type="line"/>
      <point x="1254.34" y="1532.0" type="line"/>
      <point x="1089.68" y="1532.0" type="line"/>
      <point x="947.76" y="1302.0" type="line"/>
      <point x="955.1800000000001" y="1302.0" type="line"/>
    </contour>
    <contour>
      <point x="115.0" y="682.0" type="line" smooth="yes"/>
      <point x="115.0" y="346.0"/>
      <point x="425.38" y="-30.0"/>
      <point x="669.1" y="-30.0" type="qcurve" smooth="yes"/>
      <point x="912.82" y="-30.0"/>
      <point x="1223.02" y="346.0"/>
      <point x="1223.02" y="682.0" type="qcurve" smooth="yes"/>
      <point x="1223.02" y="774.0" type="line" smooth="yes"/>
      <point x="1223.02" y="1110.0"/>
      <point x="912.82" y="1486.0"/>
      <point x="669.1" y="1486.0" type="qcurve" smooth="yes"/>
      <point x="425.38" y="1486.0"/>
      <point x="115.0" y="1110.0"/>
      <point x="115.0" y="774.0" type="qcurve" smooth="yes"/>
    </contour>
    <contour>
      <point x="275.64" y="682.0" type="qcurve" smooth="yes"/>
      <point x="275.64" y="774.0" type="line" smooth="yes"/>
      <point x="275.64" y="1040.8"/>
      <point x="491.46000000000004" y="1342.52"/>
      <point x="669.1" y="1342.52" type="qcurve" smooth="yes"/>
      <point x="846.5600000000001" y="1342.52"/>
      <point x="1062.38" y="1040.8"/>
      <point x="1062.38" y="774.0" type="qcurve" smooth="yes"/>
      <point x="1062.38" y="682.0" type="line" smooth="yes"/>
      <point x="1062.38" y="415.2"/>
      <point x="846.74" y="113.48"/>
      <point x="669.1" y="113.48" type="qcurve" smooth="yes"/>
      <point x="491.46000000000004" y="113.48"/>
      <point x="275.64" y="415.2"/>
    </contour>
  </outline>
</glyph>
<glyph name="germandbls" format="1">
  <advance width="1102.66"/>
  <unicode hex="00DF"/>
  <outline>
    <contour>
      <point x="140.0" y="0.0" type="line"/>
      <point x="294.32" y="0.0" type="line"/>
      <point x="294.32" y="1110.0" type="line" smooth="yes"/>
      <point x="294.32" y="1269.36"/>
      <point x="398.70125" y="1422.36"/>
      <point x="490.32" y="1422.36" type="qcurve" smooth="yes"/>
      <point x="581.7515068493151" y="1422.36"/>
      <point x="667.76" y="1299.72"/>
      <point x="667.76" y="1213.6" type="qcurve" smooth="yes"/>
      <point x="667.76" y="1156.52"/>
      <point x="633.86" y="1067.54"/>
      <point x="610.46" y="1029.0" type="qcurve" smooth="yes"/>
      <point x="583.72" y="984.0"/>
      <point x="535.88" y="888.0"/>
      <point x="535.88" y="822.0" type="qcurve" smooth="yes"/>
      <point x="535.88" y="730.0"/>
      <point x="624.74" y="603.0"/>
      <point x="681.04" y="553.0" type="qcurve" smooth="yes"/>
      <point x="749.1800000000001" y="493.28"/>
      <point x="869.22" y="380.14"/>
      <point x="869.22" y="300.8" type="qcurve" smooth="yes"/>
      <point x="869.22" y="218.94"/>
      <point x="772.1236363636364" y="113.64000000000001"/>
      <point x="679.52" y="113.64000000000001" type="qcurve" smooth="yes"/>
      <point x="609.5057142857142" y="113.64000000000001"/>
      <point x="490.20464738673934" y="163.75073850873025"/>
      <point x="457.94" y="187.64000000000001" type="qcurve"/>
      <point x="407.84000000000003" y="60.0" type="line"/>
      <point x="445.4429063708334" y="30.477093629166642"/>
      <point x="596.6521052631579" y="-20.0"/>
      <point x="689.16" y="-20.0" type="qcurve" smooth="yes"/>
      <point x="831.3442105263158" y="-20.0"/>
      <point x="1022.6600000000001" y="146.4"/>
      <point x="1022.6600000000001" y="308.8" type="qcurve" smooth="yes"/>
      <point x="1022.6600000000001" y="427.72"/>
      <point x="872.4" y="584.18"/>
      <point x="799.3" y="648.0" type="qcurve" smooth="yes"/>
      <point x="754.78" y="687.08"/>
      <point x="688.32" y="766.12"/>
      <point x="688.32" y="820.0" type="qcurve" smooth="yes"/>
      <point x="688.32" y="867.36"/>
      <point x="721.46" y="939.72"/>
      <point x="742.8" y="975.9" type="qcurve" smooth="yes"/>
      <point x="768.26" y="1020.44"/>
      <point x="813.96" y="1132.52"/>
      <point x="813.96" y="1223.6" type="qcurve" smooth="yes"/>
      <point x="813.96" y="1362.16"/>
      <point x="640.76" y="1556.0"/>
      <point x="490.32" y="1556.0" type="qcurve" smooth="yes"/>
      <point x="340.06" y="1556.0"/>
      <point x="140.0" y="1330.0"/>
      <point x="140.0" y="1110.0" type="qcurve" smooth="yes"/>
    </contour>
  </outline>
</glyph>
<glyph name="ae" format="1">
  <advance width="1518.92"/>
  <unicode hex="00E6"/>
  <outline>
    <contour>
      <point x="90.0" y="288.435" type="qcurve" smooth="yes"/>
      <point x="90.0" y="137.92000000000002"/>
      <point x="271.98" y="-20.53"/>
      <point x="406.92" y="-20.53" type="qcurve" smooth="yes"/>
      <point x="539.64" y="-20.53"/>
      <point x="711.88" y="87.23"/>
      <point x="767.94" y="164.265" type="qcurve"/>
      <point x="819.1" y="73.185"/>
      <point x="993.84" y="-30.0"/>
      <point x="1113.6" y="-30.0" type="qcurve" smooth="yes"/>
      <point x="1239.94" y="-30.0"/>
      <point x="1415.08" y="87.72"/>
      <point x="1459.94" y="155.29500000000002" type="qcurve"/>
      <point x="1357.7" y="242.145" type="line"/>
      <point x="1316.38" y="185.535"/>
      <point x="1198.1200000000001" y="103.64000000000001"/>
      <point x="1113.6" y="103.64000000000001" type="qcurve" smooth="yes"/>
      <point x="970.3" y="103.64000000000001"/>
      <point x="834.46" y="323.895"/>
      <point x="834.46" y="484.295" type="qcurve" smooth="yes"/>
      <point x="834.46" y="514.705" type="line" smooth="yes"/>
      <point x="834.46" y="675.105"/>
      <point x="963.5600000000001" y="895.36"/>
      <point x="1087.2" y="895.36" type="qcurve" smooth="yes"/>
      <point x="1208.14" y="895.36"/>
      <point x="1308.06" y="722.1477459016394"/>
      <point x="1308.06" y="596.56" type="qcurve"/>
      <point x="1308.06" y="593.32" type="line"/>
      <point x="769.86" y="593.32" type="line"/>
      <point x="769.86" y="463.32" type="line"/>
      <point x="1464.52" y="463.32" type="line"/>
      <point x="1464.52" y="531.91" type="line" smooth="yes"/>
      <point x="1464.52" y="760.515"/>
      <point x="1268.44" y="1029.0"/>
      <point x="1087.2" y="1029.0" type="qcurve" smooth="yes"/>
      <point x="994.26" y="1029.0"/>
      <point x="843.96" y="946.575"/>
      <point x="792.4200000000001" y="870.18" type="qcurve"/>
      <point x="756.48" y="948.39"/>
      <point x="607.96" y="1029.0"/>
      <point x="502.26" y="1029.0" type="qcurve" smooth="yes"/>
      <point x="338.44" y="1029.0"/>
      <point x="149.84" y="851.91"/>
      <point x="149.84" y="731.84" type="qcurve" smooth="yes"/>
      <point x="149.84" y="727.105" type="line"/>
      <point x="302.44" y="727.105" type="line"/>
      <point x="302.44" y="731.84" type="line" smooth="yes"/>
      <point x="302.44" y="797.871"/>
      <point x="392.16" y="898.64"/>
      <point x="497.62" y="898.64" type="qcurve" smooth="yes"/>
      <point x="604.24" y="898.64"/>
      <point x="692.3" y="779.649034090909"/>
      <point x="692.3" y="684.225" type="qcurve" smooth="yes"/>
      <point x="692.3" y="606.67" type="line"/>
      <point x="485.58000000000004" y="606.67" type="line" smooth="yes"/>
      <point x="313.04" y="606.67"/>
      <point x="90.0" y="438.05"/>
    </contour>
    <contour>
      <point x="244.32" y="296.105" type="qcurve" smooth="yes"/>
      <point x="244.32" y="384.3417701863354"/>
      <point x="376.32" y="489.43"/>
      <point x="504.68" y="489.43" type="qcurve" smooth="yes"/>
      <point x="692.3" y="489.43" type="line"/>
      <point x="692.3" y="339.885" type="line"/>
      <point x="692.3" y="256.7504639175258"/>
      <point x="534.76" y="109.565"/>
      <point x="437.92" y="109.565" type="qcurve" smooth="yes"/>
      <point x="338.3" y="109.565"/>
      <point x="244.32" y="208.06761146496817"/>
    </contour>
  </outline>
</glyph>
<glyph name="eth" format="1">
  <advance width="1028.8"/>
  <unicode hex="00F0"/>
  <outline>
    <contour>
      <point x="80.0" y="461.81" type="qcurve" smooth="yes"/>
      <point x="80.0" y="241.98603524229077"/>
      <point x="313.0" y="-30.0"/>
      <point x="492.48" y="-30.0" type="qcurve" smooth="yes"/>
      <point x="671.96" y="-30.0"/>
      <point x="908.8" y="312.0239449541284"/>
      <point x="908.8" y="699.09" type="qcurve" smooth="yes"/>
      <point x="908.8" y="779.09" type="line" smooth="yes"/>
      <point x="908.8" y="1191.3064788732395"/>
      <point x="704.88" y="1556.0"/>
      <point x="473.38" y="1556.0" type="qcurve" smooth="yes"/>
      <point x="355.14" y="1556.0"/>
      <point x="168.1" y="1448.2"/>
      <point x="116.8" y="1371.8" type="qcurve"/>
      <point x="200.3" y="1268.0" type="line"/>
      <point x="245.40022474958596" y="1327.7409049993284"/>
      <point x="380.0562162162162" y="1417.44"/>
      <point x="473.38" y="1417.44" type="qcurve" smooth="yes"/>
      <point x="621.7273684210527" y="1417.44"/>
      <point x="755.24" y="1151.8148245614034"/>
      <point x="755.24" y="789.09" type="qcurve" smooth="yes"/>
      <point x="755.24" y="689.09" type="line" smooth="yes"/>
      <point x="755.24" y="352.1974074074074"/>
      <point x="611.727323943662" y="108.56"/>
      <point x="492.48" y="108.56" type="qcurve" smooth="yes"/>
      <point x="373.20521739130436" y="108.56"/>
      <point x="237.36" y="293.48506756756757"/>
      <point x="237.36" y="461.81" type="qcurve" smooth="yes"/>
      <point x="237.36" y="629.9162"/>
      <point x="373.20521739130436" y="812.53"/>
      <point x="492.48" y="812.53" type="qcurve" smooth="yes"/>
      <point x="598.4261751152073" y="812.53"/>
      <point x="760.88" y="628.1161999999999"/>
      <point x="760.88" y="461.81" type="qcurve"/>
      <point x="826.6800000000001" y="461.81" type="line"/>
      <point x="826.6800000000001" y="681.478231441048"/>
      <point x="627.52" y="951.09"/>
      <point x="461.48" y="951.09" type="qcurve" smooth="yes"/>
      <point x="291.46" y="951.09"/>
      <point x="80.0" y="681.478231441048"/>
    </contour>
    <contour>
      <point x="395.84000000000003" y="1182.8" type="line"/>
      <point x="465.16" y="1078.64" type="line"/>
      <point x="947.1600000000001" y="1426.94" type="line"/>
      <point x="877.84" y="1531.1" type="line"/>
    </contour>
  </outline>
</glyph>
<glyph name="divide" format="1">
  <advance width="1170.0"/>
  <unicode hex="00F7"/>
  <outline>
    <contour>
      <point x="126.72" y="601.9" type="line"/>
      <point x="1043.28" y="601.9" type="line"/>
      <point x="1043.28" y="746.1" type="line"/>
      <point x="126.72" y="746.1" type="line"/>
    </contour>
    <contour>
      <point x="478.28" y="292.08" type="qcurve" smooth="yes"/>
      <point x="478.28" y="246.32"/>
      <point x="533.4" y="181.0"/>
      <point x="585.0" y="181.0" type="qcurve" smooth="yes"/>
      <point x="636.6" y="181.0"/>
      <point x="691.72" y="246.32"/>
      <point x="691.72" y="292.08" type="qcurve" smooth="yes"/>
      <point x="691.72" y="337.84"/>
      <point x="636.6" y="403.16"/>
      <point x="585.0" y="403.16" type="qcurve" smooth="yes"/>
      <point x="533.4" y="403.16"/>
      <point x="478.28" y="337.84"/>
    </contour>
    <contour>
      <point x="478.28" y="1055.92" type="qcurve" smooth="yes"/>
      <point x="478.28" y="1010.16"/>
      <point x="533.4" y="944.84"/>
      <point x="585.0" y="944.84" type="qcurve" smooth="yes"/>
      <point x="636.6" y="944.84"/>
      <point x="691.72" y="1010.16"/>
      <point x="691.72" y="1055.92" type="qcurve" smooth="yes"/>
      <point x="691.72" y="1101.68"/>
      <point x="636.6" y="1167.0"/>
      <point x="585.0" y="1167.0" type="qcurve" smooth="yes"/>
      <point x="533.4" y="1167.0"/>
      <point x="478.28" y="1101.68"/>
    </contour>
  </outline>
</glyph>
<glyph name="oslash" format="1">
  <advance width="1052.08"/>
  <unicode hex="00F8"/>
  <outline>
    <contour>
      <point x="85.0" y="483.5" type="line" smooth="yes"/>
      <point x="85.0" y="257.16"/>
      <point x="325.0" y="-30.0"/>
      <point x="526.04" y="-30.0" type="qcurve" smooth="yes"/>
      <point x="726.9" y="-30.0"/>
      <point x="967.08" y="257.16"/>
      <point x="967.08" y="483.5" type="qcurve" smooth="yes"/>
      <point x="967.08" y="515.5" type="line" smooth="yes"/>
      <point x="967.08" y="741.84"/>
      <point x="726.9" y="1029.0"/>
      <point x="526.04" y="1029.0" type="qcurve" smooth="yes"/>
      <point x="325.0" y="1029.0"/>
      <point x="85.0" y="741.84"/>
      <point x="85.0" y="515.5" type="qcurve" smooth="yes"/>
    </contour>
    <contour>
      <point x="233.72" y="515.5" type="line" smooth="yes"/>
      <point x="233.72" y="675.11"/>
      <point x="381.36" y="895.36"/>
      <point x="526.04" y="895.36" type="qcurve" smooth="yes"/>
      <point x="670.72" y="895.36"/>
      <point x="818.1800000000001" y="675.11"/>
      <point x="818.1800000000001" y="515.5" type="qcurve" smooth="yes"/>
      <point x="818.1800000000001" y="483.5" type="line" smooth="yes"/>
      <point x="818.1800000000001" y="323.89"/>
      <point x="670.72" y="103.64000000000001"/>
      <point x="526.04" y="103.64000000000001" type="qcurve" smooth="yes"/>
      <point x="381.36" y="103.64000000000001"/>
      <point x="233.72" y="323.89"/>
      <point x="233.72" y="483.5" type="qcurve" smooth="yes"/>
    </contour>
    <contour>
      <point x="118.7" y="-120.0" type="line"/>
      <point x="259.36" y="-120.0" type="line"/>
      <point x="355.66" y="60.315" type="line"/>
      <point x="352.04" y="60.315" type="line"/>
      <point x="588.38" y="499.5" type="line"/>
      <point x="463.34000000000003" y="499.5" type="line"/>
      <point x="265.98" y="138.87" type="line"/>
      <point x="262.36" y="138.87" type="line"/>
    </contour>
    <contour>
      <point x="463.34000000000003" y="499.5" type="line"/>
      <point x="588.38" y="499.5" type="line"/>
      <point x="785.74" y="860.13" type="line"/>
      <point x="789.54" y="860.13" type="line"/>
      <point x="933.38" y="1119.0" type="line"/>
      <point x="792.72" y="1119.0" type="line"/>
      <point x="695.7" y="938.685" type="line"/>
      <point x="699.5" y="938.685" type="line"/>
    </contour>
  </outline>
</glyph>
<glyph name="OE" format="1">
  <advance width="1755.9"/>
  <unicode hex="0152"/>
  <outline>
    <contour>
      <point x="115.0" y="682.0" type="line" smooth="yes"/>
      <point x="115.0" y="346.0"/>
      <point x="425.8" y="-30.0"/>
      <point x="669.1" y="-30.0" type="qcurve" smooth="yes"/>
      <point x="766.16" y="-30.0"/>
      <point x="940.14" y="47.480000000000004"/>
      <point x="1006.14" y="122.6" type="qcurve"/>
      <point x="1006.14" y="347.48" type="line"/>
      <point x="958.5" y="236.38"/>
      <point x="784.3" y="113.48"/>
      <point x="669.1" y="113.48" type="qcurve" smooth="yes"/>
      <point x="491.52" y="113.48"/>
      <point x="275.64" y="416.46"/>
      <point x="275.64" y="682.0" type="qcurve" smooth="yes"/>
      <point x="275.64" y="774.0" type="line" smooth="yes"/>
      <point x="275.64" y="1039.54"/>
      <point x="491.52" y="1342.52"/>
      <point x="669.1" y="1342.52" type="qcurve" smooth="yes"/>
      <point x="784.3" y="1342.52"/>
      <point x="958.5" y="1219.62"/>
      <point x="1006.14" y="1108.52" type="qcurve"/>
      <point x="1006.14" y="1333.4" type="line"/>
      <point x="940.14" y="1408.52"/>
      <point x="766.16" y="1486.0"/>
      <point x="669.1" y="1486.0" type="qcurve" smooth="yes"/>
      <point x="425.8" y="1486.0"/>
      <point x="115.0" y="1110.0"/>
      <point x="115.0" y="774.0" type="qcurve" smooth="yes"/>
    </contour>
    <contour>
      <point x="936.5" y="0.0" type="line"/>
      <point x="1687.9" y="0.0" type="line"/>
      <point x="1687.9" y="138.56" type="line"/>
      <point x="1095.38" y="138.56" type="line"/>
      <point x="1095.38" y="681.72" type="line"/>
      <point x="1590.4" y="681.72" type="line"/>
      <point x="1590.4" y="820.28" type="line"/>
      <point x="1095.38" y="820.28" type="line"/>
      <point x="1095.38" y="1317.44" type="line"/>
      <point x="1678.26" y="1317.44" type="line"/>
      <point x="1678.26" y="1456.0" type="line"/>
      <point x="936.5" y="1456.0" type="line"/>
    </contour>
  </outline>
</glyph>
<glyph name="oe" format="1">
  <advance width="1621.14"/>
  <unicode hex="0153"/>
  <outline>
    <contour>
      <point x="85.0" y="484.295" type="line" smooth="yes"/>
      <point x="85.0" y="257.69"/>
      <point x="321.62" y="-30.0"/>
      <point x="518.92" y="-30.0" type="qcurve" smooth="yes"/>
      <point x="635.52" y="-30.0"/>
      <point x="813.9200000000001" y="81.08"/>
      <point x="864.8" y="177.695" type="qcurve"/>
      <point x="912.58" y="81.72"/>
      <point x="1092.9" y="-30.0"/>
      <point x="1218.76" y="-30.0" type="qcurve" smooth="yes"/>
      <point x="1343.42" y="-30.0"/>
      <point x="1515.8600000000001" y="88.08"/>
      <point x="1560.54" y="155.29500000000002" type="qcurve"/>
      <point x="1458.48" y="242.145" type="line"/>
      <point x="1417.4" y="185.895"/>
      <point x="1302.02" y="103.64000000000001"/>
      <point x="1218.76" y="103.64000000000001" type="qcurve" smooth="yes"/>
      <point x="1074.38" y="103.64000000000001"/>
      <point x="937.46" y="323.895"/>
      <point x="937.46" y="484.295" type="qcurve" smooth="yes"/>
      <point x="937.46" y="514.705" type="line" smooth="yes"/>
      <point x="937.46" y="675.105"/>
      <point x="1066.56" y="895.36"/>
      <point x="1190.02" y="895.36" type="qcurve" smooth="yes"/>
      <point x="1310.56" y="895.36"/>
      <point x="1411.24" y="722.1477459016394"/>
      <point x="1411.24" y="596.56" type="qcurve"/>
      <point x="1411.24" y="593.32" type="line"/>
      <point x="872.86" y="593.32" type="line"/>
      <point x="872.86" y="463.32" type="line"/>
      <point x="1567.7" y="463.32" type="line"/>
      <point x="1567.7" y="531.91" type="line" smooth="yes"/>
      <point x="1567.7" y="760.515"/>
      <point x="1371.44" y="1029.0"/>
      <point x="1190.02" y="1029.0" type="qcurve" smooth="yes"/>
      <point x="1080.92" y="1029.0"/>
      <point x="912.4" y="917.28"/>
      <point x="864.62" y="821.3050000000001" type="qcurve"/>
      <point x="813.74" y="917.92"/>
      <point x="635.52" y="1029.0"/>
      <point x="518.92" y="1029.0" type="qcurve" smooth="yes"/>
      <point x="321.62" y="1029.0"/>
      <point x="85.0" y="741.31"/>
      <point x="85.0" y="514.705" type="qcurve" smooth="yes"/>
    </contour>
    <contour>
      <point x="242.36" y="484.295" type="qcurve" smooth="yes"/>
      <point x="242.36" y="514.705" type="line" smooth="yes"/>
      <point x="242.36" y="674.745"/>
      <point x="382.12" y="895.36"/>
      <point x="518.92" y="895.36" type="qcurve" smooth="yes"/>
      <point x="655.72" y="895.36"/>
      <point x="795.3" y="674.745"/>
      <point x="795.3" y="514.705" type="qcurve" smooth="yes"/>
      <point x="795.3" y="484.295" type="line" smooth="yes"/>
      <point x="795.3" y="324.255"/>
      <point x="655.72" y="103.64000000000001"/>
      <point x="518.92" y="103.64000000000001" type="qcurve" smooth="yes"/>
      <point x="382.12" y="103.64000000000001"/>
      <point x="242.36" y="324.255"/>
    </contour>
  </outline>
</glyph>
<glyph name="circumflex" format="1">
  <advance width="994.84"/>
  <unicode hex="02C6"/>
  <outline>
    <contour>
      <point x="196.4" y="1156.0" type="line"/>
      <point x="332.8" y="1156.0" type="line"/>
      <point x="497.42" y="1336.22" type="line"/>
      <point x="662.04" y="1156.0" type="line"/>
      <point x="798.44" y="1156.0" type="line"/>
      <point x="564.3" y="1456.0" type="line"/>
      <point x="430.54" y="1456.0" type="line"/>
    </contour>
  </outline>
</glyph>
<glyph name="ring" format="1">
  <advance width="1002.4"/>
  <unicode hex="02DA"/>
  <outline>
    <contour>
      <point x="290.24" y="1361.0" type="qcurve" smooth="yes"/>
      <point x="290.24" y="1262.0"/>
      <point x="411.76" y="1132.0"/>
      <point x="501.2" y="1132.0" type="qcurve" smooth="yes"/>
      <point x="590.64" y="1132.0"/>
      <point x="712.16" y="1262.0"/>
      <point x="712.16" y="1361.0" type="qcurve" smooth="yes"/>
      <point x="712.16" y="1460.0"/>
      <point x="590.64" y="1590.0"/>
      <point x="501.2" y="1590.0" type="qcurve" smooth="yes"/>
      <point x="411.76" y="1590.0"/>
      <point x="290.24" y="1460.0"/>
    </contour>
    <contour>
      <point x="396.0" y="1361.0" type="qcurve" smooth="yes"/>
      <point x="396.0" y="1417.22"/>
      <point x="455.16" y="1489.88"/>
      <point x="501.2" y="1489.88" type="qcurve" smooth="yes"/>
      <point x="547.42" y="1489.88"/>
      <point x="606.4" y="1417.22"/>
      <point x="606.4" y="1361.0" type="qcurve" smooth="yes"/>
      <point x="606.4" y="1304.78"/>
      <point x="547.42" y="1232.12"/>
      <point x="501.2" y="1232.12" type="qcurve" smooth="yes"/>
      <point x="455.16" y="1232.12"/>
      <point x="396.0" y="1304.78"/>
    </contour>
    <contour>
      <point x="501.2" y="1052.0" type="move" name="_top"/>
    </contour>
  </outline>
</glyph>
<glyph name="Germandbls" format="1">
  <advance width="1235.52"/>
  <unicode hex="1E9E"/>
  <outline>
    <contour>
      <point x="170.0" y="0.0" type="line"/>
      <point x="328.88" y="0.0" type="line"/>
      <point x="328.88" y="1040.0" type="line" smooth="yes"/>
      <point x="328.88" y="1190.1872340425532"/>
      <point x="477.8090909090909" y="1342.52"/>
      <point x="614.38" y="1342.52" type="qcurve" smooth="yes"/>
      <point x="744.48" y="1342.52"/>
      <point x="867.5211469453651" y="1217.1836150662125"/>
      <point x="874.58" y="1106.4" type="qcurve"/>
      <point x="574.5" y="825.6" type="line"/>
      <point x="612.28" y="691.8" type="line"/>
      <point x="803.850316534849" y="661.9460006821164"/>
      <point x="966.64" y="528.2"/>
      <point x="966.64" y="424.6" type="qcurve" smooth="yes"/>
      <point x="966.64" y="384.6" type="line" smooth="yes"/>
      <point x="966.64" y="257.94"/>
      <point x="791.9961417322835" y="118.56"/>
      <point x="652.58" y="118.56" type="qcurve" smooth="yes"/>
      <point x="614.38" y="118.56"/>
      <point x="524.7668977025577" y="129.27035129290033"/>
      <point x="499.78000000000003" y="134.28" type="qcurve"/>
      <point x="479.84000000000003" y="-4.0" type="line"/>
      <point x="513.3635083801477" y="-9.892938547518453"/>
      <point x="615.6044897959184" y="-20.0"/>
      <point x="662.22" y="-20.0" type="qcurve" smooth="yes"/>
      <point x="875.971724137931" y="-20.0"/>
      <point x="1127.04" y="206.94"/>
      <point x="1127.04" y="384.6" type="qcurve" smooth="yes"/>
      <point x="1127.04" y="424.6" type="line" smooth="yes"/>
      <point x="1127.04" y="572.44"/>
      <point x="917.52" y="768.3"/>
      <point x="748.86" y="798.3" type="qcurve"/>
      <point x="748.86" y="807.4" type="line"/>
      <point x="1033.54" y="1055.4" type="line"/>
      <point x="1033.54" y="1075.4" type="line" smooth="yes"/>
      <point x="1033.54" y="1253.0634615384615"/>
      <point x="808.8850632911392" y="1486.0"/>
      <point x="614.38" y="1486.0" type="qcurve" smooth="yes"/>
      <point x="418.92" y="1486.0"/>
      <point x="170.0" y="1260.0"/>
      <point x="170.0" y="1040.0" type="qcurve" smooth="yes"/>
    </contour>
  </outline>
</glyph>
<glyph name="emdash" format="1">
  <advance width="1506.4"/>
  <unicode hex="2014"/>
  <outline>
    <contour>
      <point x="80.0" y="556.96" type="line"/>
      <point x="1426.4" y="556.96" type="line"/>
      <point x="1426.4" y="707.0" type="line"/>
      <point x="80.0" y="707.0" type="line"/>
    </contour>
  </outline>
</glyph>
<glyph name="quoteleft" format="1">
  <advance width="414.08"/>
  <unicode hex="2018"/>
  <outline>
    <contour>
      <point x="120.0" y="1083.26" type="line"/>
      <point x="274.08" y="1083.26" type="line"/>
      <point x="274.08" y="1194.62" type="line" smooth="yes"/>
      <point x="274.08" y="1278.14"/>
      <point x="318.88" y="1402.78"/>
      <point x="360.64" y="1462.1" type="qcurve"/>
      <point x="268.84" y="1527.0" type="line"/>
      <point x="201.12" y="1464.86"/>
      <point x="120.0" y="1296.7"/>
      <point x="120.0" y="1194.62" type="qcurve" smooth="yes"/>
    </contour>
  </outline>
</glyph>
<glyph name="quotesinglbase" format="1">
  <advance width="414.08"/>
  <unicode hex="201A"/>
  <outline>
    <contour>
      <point x="53.44" y="-174.68" type="qcurve"/>
      <point x="145.24" y="-239.58" type="line"/>
      <point x="212.96" y="-177.44"/>
      <point x="294.08" y="-9.280000000000001"/>
      <point x="294.08" y="92.8" type="qcurve" smooth="yes"/>
      <point x="294.08" y="204.16" type="line"/>
      <point x="140.0" y="204.16" type="line"/>
      <point x="140.0" y="92.8" type="line" smooth="yes"/>
      <point x="140.0" y="9.280000000000001"/>
      <point x="95.2" y="-115.36"/>
    </contour>
  </outline>
</glyph>
<glyph name="quotedblleft" format="1">
  <advance width="768.16"/>
  <unicode hex="201C"/>
  <outline>
    <contour>
      <point x="120.0" y="1083.26" type="line"/>
      <point x="274.08" y="1083.26" type="line"/>
      <point x="274.08" y="1194.62" type="line" smooth="yes"/>
      <point x="274.08" y="1278.14"/>
      <point x="318.88" y="1402.78"/>
      <point x="360.64" y="1462.1" type="qcurve"/>
      <point x="268.84" y="1527.0" type="line"/>
      <point x="201.12" y="1464.86"/>
      <point x="120.0" y="1296.7"/>
      <point x="120.0" y="1194.62" type="qcurve" smooth="yes"/>
    </contour>
    <contour>
      <point x="474.08" y="1083.26" type="line"/>
      <point x="628.16" y="1083.26" type="line"/>
      <point x="628.16" y="1194.62" type="line" smooth="yes"/>
      <point x="628.16" y="1278.14"/>
      <point x="672.96" y="1402.78"/>
      <point x="714.72" y="1462.1" type="qcurve"/>
      <point x="622.92" y="1527.0" type="line"/>
      <point x="555.2" y="1464.86"/>
      <point x="474.08" y="1296.7"/>
      <point x="474.08" y="1194.62" type="qcurve" smooth="yes"/>
    </contour>
  </outline>
</glyph>
<glyph name="dagger" format="1">
  <advance width="1110.8"/>
  <unicode hex="2020"/>
  <outline>
    <contour>
      <point x="512.6" y="-220.0" type="line"/>
      <point x="598.2" y="-220.0" type="line"/>
      <point x="637.4" y="524.0" type="line"/>
      <point x="609.6" y="1020.0" type="line"/>
      <point x="642.4" y="1516.0" type="line"/>
      <point x="468.4" y="1516.0" type="line"/>
      <point x="501.2" y="1020.0" type="line"/>
      <point x="473.4" y="524.0" type="line"/>
    </contour>
    <contour>
      <point x="92.32" y="942.6" type="line"/>
      <point x="555.4" y="959.9" type="line"/>
      <point x="1018.48" y="942.6" type="line"/>
      <point x="1018.48" y="1107.4" type="line"/>
      <point x="555.4" y="1090.1" type="line"/>
      <point x="92.32" y="1107.4" type="line"/>
    </contour>
  </outline>
</glyph>
<glyph name="perthousand" format="1">
  <advance width="2157.14"/>
  <unicode hex="2030"/>
  <outline>
    <contour>
      <point x="70.0" y="1001.6" type="line" smooth="yes"/>
      <point x="70.0" y="846.46"/>
      <point x="209.84424242424242" y="660.0"/>
      <point x="341.96000000000004" y="660.0" type="qcurve" smooth="yes"/>
      <point x="474.25575757575757" y="660.0"/>
      <point x="614.1" y="846.46"/>
      <point x="614.1" y="1001.6" type="qcurve" smooth="yes"/>
      <point x="614.1" y="1134.4" type="line" smooth="yes"/>
      <point x="614.1" y="1289.54"/>
      <point x="474.25575757575757" y="1476.0"/>
      <point x="341.96000000000004" y="1476.0" type="qcurve" smooth="yes"/>
      <point x="209.84424242424242" y="1476.0"/>
      <point x="70.0" y="1289.54"/>
      <point x="70.0" y="1134.4" type="qcurve" smooth="yes"/>
    </contour>
    <contour>
      <point x="211.2" y="999.8" type="qcurve" smooth="yes"/>
      <point x="211.2" y="1136.2" type="line" smooth="yes"/>
      <point x="211.2" y="1228.18"/>
      <point x="269.285" y="1344.36"/>
      <point x="341.96000000000004" y="1344.36" type="qcurve" smooth="yes"/>
      <point x="414.815" y="1344.36"/>
      <point x="472.9" y="1228.18"/>
      <point x="472.9" y="1136.2" type="qcurve" smooth="yes"/>
      <point x="472.9" y="999.8" type="line" smooth="yes"/>
      <point x="472.9" y="907.82"/>
      <point x="414.815" y="791.64"/>
      <point x="341.96000000000004" y="791.64" type="qcurve" smooth="yes"/>
      <point x="269.285" y="791.64"/>
      <point x="211.2" y="907.82"/>
    </contour>
    <contour>
      <point x="260.46000000000004" y="52.6" type="line"/>
      <point x="373.22" y="-24.6" type="line"/>
      <point x="1231.46" y="1405.92" type="line"/>
      <point x="1117.6200000000001" y="1480.6" type="line"/>
    </contour>
    <contour>
      <point x="876.74" y="321.6" type="line" smooth="yes"/>
      <point x="876.74" y="166.46"/>
      <point x="1016.76" y="-20.0"/>
      <point x="1148.7" y="-20.0" type="qcurve" smooth="yes"/>
      <point x="1280.82" y="-20.0"/>
      <point x="1420.8400000000001" y="166.46"/>
      <point x="1420.8400000000001" y="321.6" type="qcurve" smooth="yes"/>
      <point x="1420.8400000000001" y="454.4" type="line" smooth="yes"/>
      <point x="1420.8400000000001" y="609.54"/>
      <point x="1280.82" y="796.0"/>
      <point x="1148.7" y="796.0" type="qcurve" smooth="yes"/>
      <point x="1016.76" y="796.0"/>
      <point x="876.74" y="609.54"/>
      <point x="876.74" y="454.4" type="qcurve" smooth="yes"/>
    </contour>
    <contour>
      <point x="1017.94" y="319.8" type="qcurve" smooth="yes"/>
      <point x="1017.94" y="456.2" type="line" smooth="yes"/>
      <point x="1017.94" y="548.18"/>
      <point x="1075.88" y="664.36"/>
      <point x="1148.7" y="664.36" type="qcurve" smooth="yes"/>
      <point x="1221.7" y="664.36"/>
      <point x="1279.64" y="548.18"/>
      <point x="1279.64" y="456.2" type="qcurve" smooth="yes"/>
      <point x="1279.64" y="319.8" type="line" smooth="yes"/>
      <point x="1279.64" y="227.82"/>
      <point x="1221.7" y="111.64000000000001"/>
      <point x="1148.7" y="111.64000000000001" type="qcurve" smooth="yes"/>
      <point x="1075.88" y="111.64000000000001"/>
      <point x="1017.94" y="227.82"/>
    </contour>
    <contour>
      <point x="1535.44" y="321.6" type="line" smooth="yes"/>
      <point x="1535.44" y="166.46"/>
      <point x="1675.46" y="-20.0"/>
      <point x="1807.4" y="-20.0" type="qcurve" smooth="yes"/>
      <point x="1939.52" y="-20.0"/>
      <point x="2079.54" y="166.46"/>
      <point x="2079.54" y="321.6" type="qcurve" smooth="yes"/>
      <point x="2079.54" y="454.4" type="line" smooth="yes"/>
      <point x="2079.54" y="609.54"/>
      <point x="1939.52" y="796.0"/>
      <point x="1807.4" y="796.0" type="qcurve" smooth="yes"/>
      <point x="1675.46" y="796.0"/>
      <point x="1535.44" y="609.54"/>
      <point x="1535.44" y="454.4" type="qcurve" smooth="yes"/>
    </contour>
    <contour>
      <point x="1676.64" y="319.8" type="qcurve" smooth="yes"/>
      <point x="1676.64" y="456.2" type="line" smooth="yes"/>
      <point x="1676.64" y="548.18"/>
      <point x="1734.58" y="664.36"/>
      <point x="1807.4" y="664.36" type="qcurve" smooth="yes"/>
      <point x="1880.4" y="664.36"/>
      <point x="1938.3400000000001" y="548.18"/>
      <point x="1938.3400000000001" y="456.2" type="qcurve" smooth="yes"/>
      <point x="1938.3400000000001" y="319.8" type="line" smooth="yes"/>
      <point x="1938.3400000000001" y="227.82"/>
      <point x="1880.4" y="111.64000000000001"/>
      <point x="1807.4" y="111.64000000000001" type="qcurve" smooth="yes"/>
      <point x="1734.58" y="111.64000000000001"/>
      <point x="1676.64" y="227.82"/>
    </contour>
  </outline>
</glyph>
<glyph name="guilsinglleft" format="1">
  <advance width="602.26"/>
  <unicode hex="2039"/>
  <outline>
    <contour>
      <point x="394.56" y="204.0" type="line"/>
      <point x="536.26" y="204.0" type="line"/>
      <point x="254.56" y="602.0" type="line"/>
      <point x="536.26" y="1000.0" type="line"/>
      <point x="394.56" y="1000.0" type="line"/>
      <point x="72.0" y="612.0" type="line"/>
      <point x="72.0" y="592.0" type="line"/>
    </contour>
  </outline>
</glyph>
<glyph name="won" format="1">
  <advance width="1311.9"/>
  <unicode hex="20A9"/>
  <outline>
    <contour>
      <point x="319.38" y="-10.0" type="line"/>
      <point x="465.02" y="-10.0" type="line"/>
      <point x="618.62" y="477.2" type="line" smooth="yes"/>
      <point x="628.9" y="509.38"/>
      <point x="645.88" y="572.2"/>
      <point x="652.1800000000001" y="605.2" type="qcurve"/>
      <point x="656.0" y="605.2" type="line"/>
      <point x="662.12" y="572.2"/>
      <point x="679.1" y="509.38"/>
      <point x="689.38" y="477.2" type="qcurve" smooth="yes"/>
      <point x="842.98" y="-10.0" type="line"/>
      <point x="992.52" y="-10.0" type="line"/>
      <point x="1222.56" y="1456.0" type="line"/>
      <point x="1085.14" y="1456.0" type="line"/>
      <point x="918.24" y="310.8" type="line" smooth="yes"/>
      <point x="913.6" y="276.8"/>
      <point x="906.48" y="215.8"/>
      <point x="904.82" y="182.8" type="qcurve"/>
      <point x="901.0" y="182.8" type="line"/>
      <point x="895.7" y="215.8"/>
      <point x="881.14" y="277.62"/>
      <point x="870.86" y="310.8" type="qcurve" smooth="yes"/>
      <point x="730.54" y="756.0" type="line"/>
      <point x="587.0" y="756.0" type="line"/>
      <point x="446.68" y="310.8" type="line" smooth="yes"/>
      <point x="436.4" y="277.62"/>
      <point x="421.84000000000003" y="215.8"/>
      <point x="416.54" y="182.8" type="qcurve"/>
      <point x="412.72" y="182.8" type="line"/>
      <point x="411.24" y="215.8"/>
      <point x="404.12" y="276.8"/>
      <point x="399.48" y="310.8" type="qcurve" smooth="yes"/>
      <point x="232.4" y="1456.0" type="line"/>
      <point x="89.34" y="1456.0" type="line"/>
    </contour>
    <contour>
      <point x="29.64" y="851.88" type="line"/>
      <point x="1282.26" y="851.88" type="line"/>
      <point x="1282.26" y="988.8" type="line"/>
      <point x="29.64" y="988.8" type="line"/>
    </contour>
    <contour>
      <point x="20.0" y="1170.08" type="line"/>
      <point x="1291.9" y="1170.08" type="line"/>
      <point x="1291.9" y="1307.0" type="line"/>
      <point x="20.0" y="1307.0" type="line"/>
    </contour>
  </outline>
</glyph>
<glyph name="indianrupee" format="1">
  <advance width="1070.74"/>
  <unicode hex="20B9"/>
  <outline>
    <contour>
      <point x="126.98" y="594.0" type="line"/>
      <point x="680.88" y="0.0" type="line"/>
      <point x="879.72" y="0.0" type="line"/>
      <point x="325.82" y="594.0" type="line"/>
      <point x="392.2" y="594.0" type="line" smooth="yes"/>
      <point x="606.64" y="594.0"/>
      <point x="833.38" y="834.0"/>
      <point x="833.38" y="1028.0" type="qcurve" smooth="yes"/>
      <point x="833.38" y="1117.72"/>
      <point x="774.98" y="1269.8"/>
      <point x="712.88" y="1319.08" type="qcurve"/>
      <point x="983.26" y="1319.08" type="line"/>
      <point x="1014.74" y="1456.0" type="line"/>
      <point x="111.48" y="1456.0" type="line"/>
      <point x="80.0" y="1319.08" type="line"/>
      <point x="385.0" y="1319.08" type="line" smooth="yes"/>
      <point x="547.8131428571429" y="1319.08"/>
      <point x="676.02" y="1151.92"/>
      <point x="676.02" y="1028.0" type="qcurve" smooth="yes"/>
      <point x="676.02" y="904.08"/>
      <point x="547.8131428571429" y="730.92"/>
      <point x="385.0" y="730.92" type="qcurve" smooth="yes"/>
      <point x="158.46" y="730.92" type="line"/>
    </contour>
    <contour>
      <point x="115.32" y="950.8" type="line"/>
      <point x="980.38" y="950.8" type="line"/>
      <point x="1011.86" y="1087.72" type="line"/>
      <point x="146.8" y="1087.72" type="line"/>
    </contour>
  </outline>
</glyph>
<glyph name="numero" format="1">
  <advance width="2268.56"/>
  <unicode hex="2116"/>
  <outline>
    <contour>
      <point x="170.0" y="0.0" type="line"/>
      <point x="324.58" y="0.0" type="line"/>
      <point x="324.58" y="1008.0" type="line" smooth="yes"/>
      <point x="324.58" y="1038.0"/>
      <point x="320.58" y="1113.0"/>
      <point x="316.58" y="1143.0" type="qcurve"/>
      <point x="326.58" y="1143.0" type="line"/>
      <point x="340.58" y="1118.0"/>
      <point x="374.26" y="1058.82"/>
      <point x="392.42" y="1027.82" type="qcurve" smooth="yes"/>
      <point x="971.4200000000001" y="0.0" type="line"/>
      <point x="1139.44" y="0.0" type="line"/>
      <point x="1139.44" y="1456.0" type="line"/>
      <point x="984.86" y="1456.0" type="line"/>
      <point x="984.86" y="447.46000000000004" type="line" smooth="yes"/>
      <point x="984.86" y="417.46000000000004"/>
      <point x="988.86" y="343.9"/>
      <point x="992.86" y="312.46000000000004" type="qcurve"/>
      <point x="982.86" y="312.46000000000004" type="line"/>
      <point x="968.86" y="337.46000000000004"/>
      <point x="934.6" y="397.46000000000004"/>
      <point x="917.2" y="427.46000000000004" type="qcurve" smooth="yes"/>
      <point x="338.02" y="1456.0" type="line"/>
      <point x="170.0" y="1456.0" type="line"/>
    </contour>
    <contour>
      <point x="1320.8400000000001" y="142.6" type="line"/>
      <point x="1320.8400000000001" y="286.9" type="line"/>
      <point x="2119.96" y="286.9" type="line"/>
      <point x="2119.96" y="142.6" type="line"/>
    </contour>
    <contour>
      <point x="1292.24" y="964.0" type="qcurve" smooth="yes"/>
      <point x="1292.24" y="984.0" type="line" smooth="yes"/>
      <point x="1292.24" y="1194.36"/>
      <point x="1519.16" y="1476.0"/>
      <point x="1720.4" y="1476.0" type="qcurve" smooth="yes"/>
      <point x="1921.64" y="1476.0"/>
      <point x="2148.56" y="1194.36"/>
      <point x="2148.56" y="984.0" type="qcurve" smooth="yes"/>
      <point x="2148.56" y="964.0" type="line" smooth="yes"/>
      <point x="2148.56" y="753.64"/>
      <point x="1921.64" y="472.0"/>
      <point x="1720.4" y="472.0" type="qcurve" smooth="yes"/>
      <point x="1519.16" y="472.0"/>
      <point x="1292.24" y="753.64"/>
    </contour>
    <contour>
      <point x="1442.0" y="964.0" type="line" smooth="yes"/>
      <point x="1442.0" y="806.26"/>
      <point x="1581.68" y="605.64"/>
      <point x="1720.4" y="605.64" type="qcurve" smooth="yes"/>
      <point x="1859.1200000000001" y="605.64"/>
      <point x="1998.8" y="806.26"/>
      <point x="1998.8" y="964.0" type="qcurve" smooth="yes"/>
      <point x="1998.8" y="984.0" type="line" smooth="yes"/>
      <point x="1998.8" y="1141.74"/>
      <point x="1859.1200000000001" y="1342.36"/>
      <point x="1720.4" y="1342.36" type="qcurve" smooth="yes"/>
      <point x="1581.68" y="1342.36"/>
      <point x="1442.0" y="1141.74"/>
      <point x="1442.0" y="984.0" type="qcurve" smooth="yes"/>
    </contour>
  </outline>
</glyph>
<glyph name="trademark" format="1">
  <advance width="1519.14"/>
  <unicode hex="2122"/>
  <outline>
    <contour>
      <point x="276.0" y="820.0" type="line"/>
      <point x="408.08" y="820.0" type="line"/>
      <point x="408.08" y="1332.56" type="line"/>
      <point x="601.12" y="1332.56" type="line"/>
      <point x="601.12" y="1456.0" type="line"/>
      <point x="82.78" y="1456.0" type="line"/>
      <point x="82.78" y="1332.56" type="line"/>
      <point x="276.0" y="1332.56" type="line"/>
    </contour>
    <contour>
      <point x="668.06" y="820.0" type="line"/>
      <point x="778.86" y="820.0" type="line"/>
      <point x="778.86" y="1281.54" type="line"/>
      <point x="953.1800000000001" y="820.0" type="line"/>
      <point x="1075.98" y="820.0" type="line"/>
      <point x="1249.94" y="1281.9" type="line"/>
      <point x="1249.94" y="820.0" type="line"/>
      <point x="1368.34" y="820.0" type="line"/>
      <point x="1368.34" y="1456.0" type="line"/>
      <point x="1194.18" y="1456.0" type="line"/>
      <point x="1018.44" y="983.2" type="line"/>
      <point x="842.7" y="1456.0" type="line"/>
      <point x="668.06" y="1456.0" type="line"/>
    </contour>
  </outline>
</glyph>
<glyph name="divisionslash" format="1">
  <advance width="670.1"/>
  <unicode hex="2215"/>
  <outline>
    <contour>
      <point x="-50.0" y="-125.0" type="line"/>
      <point x="96.30000000000001" y="-125.0" type="line"/>
      <point x="670.1" y="1456.0" type="line"/>
      <point x="523.98" y="1456.0" type="line"/>
    </contour>
  </outline>
</glyph>
<glyph name="fl" format="1">
  <advance width="1050.96"/>
  <unicode hex="FB02"/>
  <outline>
    <contour>
      <point x="188.26" y="0.0" type="line"/>
      <point x="342.58" y="0.0" type="line"/>
      <point x="342.58" y="926.36" type="line"/>
      <point x="342.58" y="946.2" type="line"/>
      <point x="342.58" y="1183.6" type="line" smooth="yes"/>
      <point x="342.58" y="1301.7"/>
      <point x="441.58" y="1419.8"/>
      <point x="542.4" y="1419.8" type="qcurve" smooth="yes"/>
      <point x="606.6" y="1419.8"/>
      <point x="728.4200000000001" y="1385.26"/>
      <point x="778.28" y="1363.44" type="qcurve"/>
      <point x="807.4" y="1496.0" type="line"/>
      <point x="746.38" y="1523.28"/>
      <point x="609.82" y="1556.0"/>
      <point x="542.4" y="1556.0" type="qcurve" smooth="yes"/>
      <point x="375.92" y="1556.0"/>
      <point x="188.26" y="1365.8"/>
      <point x="188.26" y="1183.6" type="qcurve" smooth="yes"/>
    </contour>
    <contour>
      <point x="25.0" y="873.56" type="line"/>
      <point x="592.5" y="873.56" type="line"/>
      <point x="592.5" y="999.0" type="line"/>
      <point x="278.88" y="999.0" type="line"/>
      <point x="243.68" y="999.0" type="line"/>
      <point x="25.0" y="999.0" type="line"/>
    </contour>
    <contour>
      <point x="740.4" y="0.0" type="line"/>
      <point x="894.72" y="0.0" type="line"/>
      <point x="894.72" y="1496.0" type="line"/>
      <point x="740.4" y="1496.0" type="line"/>
    </contour>
  </outline>
</glyph>
<glyph name="f_f_i" format="1">
  <advance width="1544.5"/>
  <unicode hex="FB03"/>
  <outline>
    <contour>
      <point x="188.26" y="0.0" type="line"/>
      <point x="342.58" y="0.0" type="line"/>
      <point x="342.58" y="926.36" type="line"/>
      <point x="342.58" y="946.2" type="line"/>
      <point x="342.58" y="1183.6" type="line" smooth="yes"/>
      <point x="342.58" y="1301.7"/>
      <point x="438.52" y="1419.8"/>
      <point x="538.26" y="1419.8" type="qcurve" smooth="yes"/>
      <point x="587.04" y="1419.8"/>
      <point x="680.14" y="1395.26"/>
      <point x="721.34" y="1378.16" type="qcurve"/>
      <point x="748.46" y="1512.46" type="line"/>
      <point x="698.0" y="1532.1"/>
      <point x="591.32" y="1556.0"/>
      <point x="538.26" y="1556.0" type="qcurve" smooth="yes"/>
      <point x="373.76" y="1556.0"/>
      <point x="188.26" y="1365.8"/>
      <point x="188.26" y="1183.6" type="qcurve" smooth="yes"/>
    </contour>
    <contour>
      <point x="25.0" y="873.56" type="line"/>
      <point x="584.22" y="873.56" type="line"/>
      <point x="584.22" y="999.0" type="line"/>
      <point x="278.88" y="999.0" type="line"/>
      <point x="243.68" y="999.0" type="line"/>
      <point x="25.0" y="999.0" type="line"/>
    </contour>
    <contour>
      <point x="711.84" y="0.0" type="line"/>
      <point x="866.1600000000001" y="0.0" type="line"/>
      <point x="866.1600000000001" y="926.36" type="line"/>
      <point x="866.1600000000001" y="946.2" type="line"/>
      <point x="866.1600000000001" y="1183.6" type="line" smooth="yes"/>
      <point x="866.1600000000001" y="1301.7"/>
      <point x="965.1600000000001" y="1419.8"/>
      <point x="1066.16" y="1419.8" type="qcurve" smooth="yes"/>
      <point x="1124.6" y="1419.8"/>
      <point x="1236.22" y="1387.06"/>
      <point x="1283.14" y="1366.68" type="qcurve"/>
      <point x="1311.96" y="1498.52" type="line"/>
      <point x="1254.1200000000001" y="1525.08"/>
      <point x="1128.1200000000001" y="1556.0"/>
      <point x="1066.16" y="1556.0" type="qcurve" smooth="yes"/>
      <point x="899.5" y="1556.0"/>
      <point x="711.84" y="1365.8"/>
      <point x="711.84" y="1183.6" type="qcurve" smooth="yes"/>
    </contour>
    <contour>
      <point x="555.64" y="873.56" type="line"/>
      <point x="1121.88" y="873.56" type="line"/>
      <point x="1121.88" y="999.0" type="line"/>
      <point x="809.52" y="999.0" type="line"/>
      <point x="774.32" y="999.0" type="line"/>
      <point x="555.64" y="999.0" type="line"/>
    </contour>
    <contour>
      <point x="1236.24" y="0.0" type="line"/>
      <point x="1390.56" y="0.0" type="line"/>
      <point x="1390.56" y="999.0" type="line"/>
      <point x="1236.24" y="999.0" type="line"/>
    </contour>
  </outline>
</glyph>
<glyph name="f_f_l" format="1">
  <advance width="1574.54"/>
  <unicode hex="FB04"/>
  <outline>
    <contour>
      <point x="188.26" y="0.0" type="line"/>
      <point x="342.58" y="0.0" type="line"/>
      <point x="342.58" y="926.36" type="line"/>
      <point x="342.58" y="946.2" type="line"/>
      <point x="342.58" y="1183.6" type="line" smooth="yes"/>
      <point x="342.58" y="1301.7"/>
      <point x="438.52" y="1419.8"/>
      <point x="538.26" y="1419.8" type="qcurve" smooth="yes"/>
      <point x="587.04" y="1419.8"/>
      <point x="680.14" y="1395.26"/>
      <point x="721.34" y="1378.16" type="qcurve"/>
      <point x="748.46" y="1512.46" type="line"/>
      <point x="698.0" y="1532.1"/>
      <point x="591.32" y="1556.0"/>
      <point x="538.26" y="1556.0" type="qcurve" smooth="yes"/>
      <point x="373.76" y="1556.0"/>
      <point x="188.26" y="1365.8"/>
      <point x="188.26" y="1183.6" type="qcurve" smooth="yes"/>
    </contour>
    <contour>
      <point x="25.0" y="873.56" type="line"/>
      <point x="592.5" y="873.56" type="line"/>
      <point x="592.5" y="999.0" type="line"/>
      <point x="278.88" y="999.0" type="line"/>
      <point x="243.68" y="999.0" type="line"/>
      <point x="25.0" y="999.0" type="line"/>
    </contour>
    <contour>
      <point x="711.84" y="0.0" type="line"/>
      <point x="866.1600000000001" y="0.0" type="line"/>
      <point x="866.1600000000001" y="926.36" type="line"/>
      <point x="866.1600000000001" y="946.2" type="line"/>
      <point x="866.1600000000001" y="1183.6" type="line" smooth="yes"/>
      <point x="866.1600000000001" y="1301.7"/>
      <point x="965.1600000000001" y="1419.8"/>
      <point x="1065.98" y="1419.8" type="qcurve" smooth="yes"/>
      <point x="1130.18" y="1419.8"/>
      <point x="1252.0" y="1385.26"/>
      <point x="1301.8600000000001" y="1363.44" type="qcurve"/>
      <point x="1330.98" y="1496.0" type="line"/>
      <point x="1269.96" y="1523.28"/>
      <point x="1133.4" y="1556.0"/>
      <point x="1065.98" y="1556.0" type="qcurve" smooth="yes"/>
      <point x="899.5" y="1556.0"/>
      <point x="711.84" y="1365.8"/>
      <point x="711.84" y="1183.6" type="qcurve" smooth="yes"/>
    </contour>
    <contour>
      <point x="554.38" y="873.56" type="line"/>
      <point x="1121.88" y="873.56" type="line"/>
      <point x="1121.88" y="999.0" type="line"/>
      <point x="808.26" y="999.0" type="line"/>
      <point x="773.0600000000001" y="999.0" type="line"/>
      <point x="554.38" y="999.0" type="line"/>
    </contour>
    <contour>
      <point x="1263.98" y="0.0" type="line"/>
      <point x="1418.3" y="0.0" type="line"/>
      <point x="1418.3" y="1496.0" type="line"/>
      <point x="1263.98" y="1496.0" type="line"/>
    </contour>
  </outline>
</glyph>
<glyph name="five.pnum" format="1">
  <advance width="1055.52"/>
  <outline>
    <contour>
      <point x="102.19999999999999" y="365.0" type="line" smooth="yes"/>
      <point x="102.19999999999999" y="195.0"/>
      <point x="333.22" y="-30.0"/>
      <point x="519.94" y="-30.0" type="qcurve" smooth="yes"/>
      <point x="706.48" y="-30.0"/>
      <point x="951.58" y="235.0"/>
      <point x="951.58" y="465.0" type="qcurve" smooth="yes"/>
      <point x="951.58" y="690.9195071868584"/>
      <point x="713.72" y="943.36"/>
      <point x="543.7" y="943.36" type="qcurve" smooth="yes"/>
      <point x="471.92" y="943.36"/>
      <point x="351.42" y="897.72"/>
      <point x="305.68" y="864.66" type="qcurve"/>
      <point x="353.1" y="1307.6" type="line"/>
      <point x="882.6" y="1307.6" type="line"/>
      <point x="882.6" y="1456.0" type="line"/>
      <point x="223.32" y="1456.0" type="line"/>
      <point x="150.04" y="728.2" type="line"/>
      <point x="258.04" y="676.64" type="line"/>
      <point x="308.92" y="734.84"/>
      <point x="438.04" y="803.98"/>
      <point x="519.94" y="803.98" type="qcurve" smooth="yes"/>
      <point x="640.22" y="803.98"/>
      <point x="793.98" y="630.3560975609756"/>
      <point x="793.98" y="465.0" type="qcurve" smooth="yes"/>
      <point x="793.98" y="295.77032640949557"/>
      <point x="640.22" y="108.56"/>
      <point x="519.94" y="108.56" type="qcurve" smooth="yes"/>
      <point x="399.48" y="108.56"/>
      <point x="255.18" y="246.0"/>
      <point x="255.18" y="365.0" type="qcurve" smooth="yes"/>
      <point x="255.18" y="375.0" type="line"/>
      <point x="102.19999999999999" y="375.0" type="line"/>
    </contour>
  </outline>
</glyph>
<glyph name="four.pnum" format="1">
  <advance width="1063.64"/>
  <outline>
    <contour>
      <point x="668.72" y="0.0" type="line"/>
      <point x="818.72" y="0.0" type="line"/>
      <point x="818.72" y="1456.0" type="line"/>
      <point x="682.78" y="1456.0" type="line"/>
      <point x="42.599999999999994" y="462.24" type="line"/>
      <point x="42.599999999999994" y="347.04" type="line"/>
      <point x="1012.58" y="347.04" type="line"/>
      <point x="1012.58" y="485.6" type="line"/>
      <point x="776.74" y="485.6" type="line"/>
      <point x="718.04" y="485.6" type="line"/>
      <point x="218.88" y="485.6" type="line"/>
      <point x="658.16" y="1154.94" type="line"/>
      <point x="668.72" y="1154.94" type="line"/>
      <point x="668.72" y="441.0" type="line"/>
      <point x="668.72" y="396.56" type="line"/>
    </contour>
  </outline>
</glyph>
<glyph name="nine.pnum" format="1">
  <advance width="1113.52"/>
  <outline>
    <contour>
      <point x="106.97999999999999" y="1002.0" type="qcurve" smooth="yes"/>
      <point x="106.97999999999999" y="789.24"/>
      <point x="326.12" y="527.2"/>
      <point x="505.56" y="527.2" type="qcurve" smooth="yes"/>
      <point x="683.42" y="527.2"/>
      <point x="903.9200000000001" y="790.3805309734513"/>
      <point x="903.9200000000001" y="1002.0" type="qcurve"/>
      <point x="843.52" y="1002.0" type="line"/>
      <point x="843.52" y="845.7632835820896"/>
      <point x="657.5600000000001" y="665.76"/>
      <point x="536.5600000000001" y="665.76" type="qcurve" smooth="yes"/>
      <point x="407.0" y="665.76"/>
      <point x="264.52" y="841.0241791044776"/>
      <point x="264.52" y="1002.0" type="qcurve" smooth="yes"/>
      <point x="264.52" y="1166.2245945945947"/>
      <point x="407.0" y="1347.44"/>
      <point x="536.5600000000001" y="1347.44" type="qcurve" smooth="yes"/>
      <point x="666.66" y="1347.44"/>
      <point x="837.52" y="1122.62"/>
      <point x="837.52" y="852.0" type="qcurve" smooth="yes"/>
      <point x="837.52" y="802.0" type="line" smooth="yes"/>
      <point x="837.52" y="449.12"/>
      <point x="544.6" y="108.56"/>
      <point x="293.16" y="108.56" type="qcurve" smooth="yes"/>
      <point x="274.06" y="108.56" type="line"/>
      <point x="274.06" y="-30.0" type="line"/>
      <point x="293.16" y="-30.0" type="line" smooth="yes"/>
      <point x="627.26" y="-30.0"/>
      <point x="993.36" y="430.92"/>
      <point x="993.36" y="812.0" type="qcurve" smooth="yes"/>
      <point x="993.36" y="842.0" type="line" smooth="yes"/>
      <point x="993.36" y="1182.0"/>
      <point x="724.0" y="1486.0"/>
      <point x="536.5600000000001" y="1486.0" type="qcurve" smooth="yes"/>
      <point x="349.3" y="1486.0"/>
      <point x="106.97999999999999" y="1218.0"/>
    </contour>
  </outline>
</glyph>
<glyph name="six.pnum" format="1">
  <advance width="1113.52"/>
  <outline>
    <contour>
      <point x="120.16" y="614.0" type="line" smooth="yes"/>
      <point x="120.16" y="274.0"/>
      <point x="389.7" y="-30.0"/>
      <point x="576.96" y="-30.0" type="qcurve" smooth="yes"/>
      <point x="764.4" y="-30.0"/>
      <point x="1006.54" y="244.0"/>
      <point x="1006.54" y="464.0" type="qcurve" smooth="yes"/>
      <point x="1006.54" y="680.780487804878"/>
      <point x="788.16" y="948.8"/>
      <point x="607.96" y="948.8" type="qcurve" smooth="yes"/>
      <point x="430.1" y="948.8"/>
      <point x="209.78" y="679.68"/>
      <point x="209.78" y="464.0" type="qcurve"/>
      <point x="270.18" y="464.0" type="line"/>
      <point x="270.18" y="625.08"/>
      <point x="456.14" y="810.24"/>
      <point x="576.96" y="810.24" type="qcurve" smooth="yes"/>
      <point x="706.52" y="810.24"/>
      <point x="849.1800000000001" y="629.8634730538922"/>
      <point x="849.1800000000001" y="464.0" type="qcurve" smooth="yes"/>
      <point x="849.1800000000001" y="294.74285714285713"/>
      <point x="706.52" y="108.56"/>
      <point x="576.96" y="108.56" type="qcurve" smooth="yes"/>
      <point x="447.04" y="108.56"/>
      <point x="276.18" y="333.381512605042"/>
      <point x="276.18" y="604.0" type="qcurve" smooth="yes"/>
      <point x="276.18" y="654.0" type="line" smooth="yes"/>
      <point x="276.18" y="1006.88"/>
      <point x="568.92" y="1347.44"/>
      <point x="820.36" y="1347.44" type="qcurve" smooth="yes"/>
      <point x="839.46" y="1347.44" type="line"/>
      <point x="839.46" y="1486.0" type="line"/>
      <point x="820.36" y="1486.0" type="line" smooth="yes"/>
      <point x="486.26" y="1486.0"/>
      <point x="120.16" y="1025.08"/>
      <point x="120.16" y="644.0" type="qcurve" smooth="yes"/>
    </contour>
  </outline>
</glyph>
<glyph name="zero.pnum" format="1">
  <advance width="1113.52"/>
  <outline>
    <contour>
      <point x="143.36" y="440.2" type="line" smooth="yes"/>
      <point x="143.36" y="229.92000000000002"/>
      <point x="361.54" y="-30.0"/>
      <point x="556.76" y="-30.0" type="qcurve" smooth="yes"/>
      <point x="750.46" y="-30.0"/>
      <point x="970.1600000000001" y="229.92000000000002"/>
      <point x="970.1600000000001" y="440.2" type="qcurve" smooth="yes"/>
      <point x="970.1600000000001" y="1015.8" type="line" smooth="yes"/>
      <point x="970.1600000000001" y="1226.8"/>
      <point x="750.46" y="1486.0"/>
      <point x="556.76" y="1486.0" type="qcurve" smooth="yes"/>
      <point x="361.54" y="1486.0"/>
      <point x="143.36" y="1226.8"/>
      <point x="143.36" y="1015.8" type="qcurve" smooth="yes"/>
    </contour>
    <contour>
      <point x="304.18" y="430.2" type="qcurve" smooth="yes"/>
      <point x="304.18" y="1025.8" type="line" smooth="yes"/>
      <point x="304.18" y="1164.18"/>
      <point x="428.04" y="1347.44"/>
      <point x="556.76" y="1347.44" type="qcurve" smooth="yes"/>
      <point x="685.48" y="1347.44"/>
      <point x="809.34" y="1164.18"/>
      <point x="809.34" y="1025.8" type="qcurve" smooth="yes"/>
      <point x="809.34" y="430.2" type="line" smooth="yes"/>
      <point x="809.34" y="292.72"/>
      <point x="685.48" y="108.56"/>
      <point x="556.76" y="108.56" type="qcurve" smooth="yes"/>
      <point x="428.04" y="108.56"/>
      <point x="304.18" y="292.72"/>
    </contour>
  </outline>
</glyph>
